<?xml version="1.0" encoding="UTF-8" standalone="no"?>
<svg
   version="1.1"
   width="1164.3939"
   height="1093.6412"
   id="svg624"
   sodipodi:docname="icon.svg"
   inkscape:version="1.2.2 (b0a8486541, 2022-12-01)"
   xmlns:inkscape="http://www.inkscape.org/namespaces/inkscape"
   xmlns:sodipodi="http://sodipodi.sourceforge.net/DTD/sodipodi-0.dtd"
   xmlns="http://www.w3.org/2000/svg"
   xmlns:svg="http://www.w3.org/2000/svg">
  <defs
     id="defs628" />
  <sodipodi:namedview
     id="namedview626"
     pagecolor="#ffffff"
     bordercolor="#000000"
     borderopacity="0.25"
     inkscape:showpageshadow="2"
     inkscape:pageopacity="0.0"
     inkscape:pagecheckerboard="0"
     inkscape:deskcolor="#d1d1d1"
     showgrid="false"
     inkscape:zoom="0.28346419"
     inkscape:cx="-389.81996"
     inkscape:cy="470.95896"
     inkscape:window-width="1920"
     inkscape:window-height="1002"
     inkscape:window-x="0"
     inkscape:window-y="0"
     inkscape:window-maximized="1"
     inkscape:current-layer="svg624" />
  <path
     d="m 561.18795,127 c 1.93166,0.21463 1.93166,0.21463 3.90235,0.43359 1.23339,0.13705 1.23339,0.13705 2.4917,0.27686 0.85996,0.0956 1.71993,0.1911 2.60595,0.28955 0.80196,0.0891 1.60392,0.17821 2.43018,0.27002 2.37744,0.26416 4.75488,0.52832 7.13232,0.79248 0.81791,0.0909 1.63582,0.18176 2.47852,0.27539 1.98633,0.2207 3.97266,0.44141 5.95898,0.66211 0,0.66 0,1.32 0,2 1.03512,0.12633 2.07024,0.25266 3.13672,0.38281 15.66766,2.38157 29.10517,9.48832 43.01721,16.66754 1.80171,0.92683 3.60751,1.84503 5.41541,2.75971 12.98964,6.57489 25.79359,13.42045 38.43212,20.64721 5.45062,3.1158 10.93117,6.14101 16.49854,9.04273 6.52037,3.40142 12.92406,6.98224 19.3125,10.625 12.13578,6.91086 24.44633,13.48273 36.77002,20.04932 5.27489,2.81794 10.53508,5.66276 15.79248,8.51318 0.97961,0.53109 1.95921,1.06219 2.96851,1.60937 7.46369,4.04997 14.91939,8.11453 22.37109,12.18653 4.72258,2.57925 9.45046,5.14804 14.18774,7.70019 9.98657,5.38268 19.92856,10.82371 29.78516,16.44141 8.05386,4.58942 16.18935,8.96825 24.42334,13.22461 6.31873,3.28362 12.52134,6.73905 18.70166,10.27539 10.68885,6.10858 21.53562,11.89094 32.41992,17.64038 7.72652,4.08231 15.42421,8.20818 23.08008,12.42212 11.39531,6.26108 22.95165,12.20499 34.50537,18.16699 4.7359,2.44898 9.4616,4.91704 14.18213,7.39551 1.16535,0.60932 1.16535,0.60932 2.35425,1.23096 2.97908,1.56665 5.84256,3.15025 8.64575,5.01904 2.27538,0.66613 2.27538,0.66613 4.6875,1.125 1.21235,0.25137 1.21235,0.25137 2.44925,0.50781 0.6149,0.12117 1.2297,0.24235 1.8633,0.36719 0.8263,2.89234 1,4.88742 1,8 0.66,0.66 1.32,1.32 2,2 2.2764,9.43294 2.5287,19.33972 3,29 0.8288,-0.33387 1.6577,-0.66773 2.5117,-1.01172 3.9113,-1.10814 7.3023,-1.11388 11.3008,-0.80078 0.7034,0.0504 1.4068,0.10087 2.1315,0.15283 6.7183,0.56831 13.4865,1.30145 18.056,6.65967 0.9514,2.35327 0.9514,2.35327 1.7539,5.12109 0.4457,1.52851 0.4457,1.52851 0.9004,3.08789 0.2997,1.06541 0.5994,2.13082 0.9082,3.22852 0.3035,1.03061 0.6071,2.06121 0.9199,3.12305 4.819,16.78785 5.6713,33.53538 6.0801,50.87695 0.021,0.85164 0.042,1.70327 0.063,2.58072 0.6033,24.76882 0.6033,24.76882 0.3743,36.98178 -0.035,1.91909 -0.035,1.91909 -0.07,3.87695 -0.8764,45.69221 -0.8764,45.69221 -3.5235,53.98267 -0.5485,2.88982 0.1077,5.23238 0.5938,8.14038 0.1393,3.43653 0.1052,6.86982 0.078,10.30859 -0,1.00817 -0.01,2.01633 -0.013,3.05504 -0.016,3.21218 -0.04,6.42424 -0.065,9.63637 -0.011,2.04574 -0.022,4.09147 -0.033,6.13721 -0.1457,22.40194 -0.3993,44.76331 -2.8418,67.05029 -0.081,0.74622 -0.1622,1.49243 -0.2457,2.26126 -0.8883,7.97415 -2.0447,15.88856 -3.4184,23.79343 -0.1833,1.05715 -0.1833,1.05715 -0.3703,2.13566 -1.7078,9.47823 -1.7078,9.47823 -5.0906,13.62215 -5.4194,2.12937 -10.9656,2.02037 -16.7087,2.00977 -0.9908,-10e-4 -1.9816,-0.003 -3.0025,-0.004 -0.7553,-0.002 -1.5106,-0.004 -2.2888,-0.005 0.025,1.01729 0.05,2.03458 0.076,3.0827 0.2411,9.81655 0.4763,19.63323 0.7064,29.45004 0.1183,5.04108 0.2384,10.0821 0.3632,15.12302 0.2905,11.7822 0.5429,23.56435 0.7461,35.34839 0.071,4.05877 0.1545,8.11698 0.248,12.17529 0.1145,5.04859 0.1965,10.0968 0.2563,15.14631 0.027,1.88981 0.065,3.7795 0.1141,5.66887 0.28,11.09792 -0.095,19.45261 -6.5099,29.00461 -0.4228,0.64036 -0.8455,1.28072 -1.2811,1.94049 -0.361,0.53526 -0.722,1.07053 -1.0939,1.62201 -1.9024,2.36527 -1.9024,2.36527 -1.625,5.4375 -0.66,0 -1.32,0 -2,0 -0.33,2.31 -0.66,4.62 -1,7 -0.66,0 -1.32,0 -2,0 -0.1238,0.92813 -0.2475,1.85625 -0.375,2.8125 -0.625,3.1875 -0.625,3.1875 -2.625,6.1875 -1.83452,0.78442 -1.83452,0.78442 -4.03911,1.39453 -5.09779,1.57051 -9.6397,3.78443 -14.33594,6.29297 -1.24934,0.6631 -1.24934,0.6631 -2.52393,1.3396 -6.45944,3.49263 -12.29221,7.48343 -18.10107,11.9729 -17.08265,12.59845 -36.07304,22.1794 -54.7795,32.09917 -6.8479,3.63141 -13.67233,7.30184 -20.4705,11.02583 -7.89854,4.32579 -15.81756,8.61168 -23.75,12.875 -7.97326,4.28561 -15.934,8.59241 -23.875,12.9375 -11.80002,6.45256 -23.65902,12.79441 -35.51953,19.13477 -10.5395,5.63445 -21.07314,11.27987 -31.60547,16.92773 -1.1434,0.61295 -2.2868,1.2259 -3.46484,1.85742 -15.91571,8.53438 -15.91571,8.53438 -31.72266,17.26758 -7.58609,4.2525 -15.2828,8.2743 -23.00464,12.2739 -6.64903,3.452 -13.24226,6.9932 -19.80786,10.6011 -8.40317,4.6165 -16.87162,9.0895 -25.38794,13.4934 -5.72728,2.9711 -11.39689,6.027 -17.03637,9.1614 -31.47061,17.4565 -31.47061,17.4565 -45.57569,18.3452 -0.13277,0.8547 -0.26554,1.7093 -0.40234,2.5898 -0.1766,1.1048 -0.3532,2.2095 -0.53516,3.3477 -0.26103,1.6532 -0.26103,1.6532 -0.52734,3.3398 -0.53516,2.7227 -0.53516,2.7227 -1.53516,3.7227 -12.52597,1.1362 -24.94532,1.4395 -36,-5 -1.51314,-0.8184 -3.02905,-1.6317 -4.54687,-2.4414 -3.7055,-1.9887 -7.39215,-4.0081 -11.07031,-6.0469 -6.4461,-3.5629 -12.94203,-7.0279 -19.44638,-10.4829 -17.66916,-9.3877 -35.26134,-18.8787 -52.59562,-28.8747 -5.90426,-3.3855 -11.87542,-6.4868 -17.99316,-9.4705 -4.31746,-2.1713 -8.50223,-4.5435 -12.7002,-6.9353 -6.02264,-3.422 -12.11075,-6.7151 -18.20996,-9.9983 -7.90917,-4.2617 -15.76003,-8.6087 -23.5625,-13.0625 -9.01976,-5.14333 -18.14091,-10.0725 -27.3125,-14.9375 -12.91167,-6.85004 -25.73053,-13.79035 -38.23437,-21.36719 -5.63621,-3.34767 -11.44234,-6.39305 -17.24219,-9.44531 -8.98998,-4.73135 -17.8866,-9.59232 -26.72412,-14.60205 -4.71707,-2.66719 -9.4463,-5.31274 -14.17432,-7.96045 -1.05735,-0.5924 -2.11471,-1.18481 -3.2041,-1.79517 -6.75708,-3.78281 -13.52437,-7.54675 -20.29761,-11.30053 -10.02415,-5.55592 -20.02366,-11.14823 -29.96265,-16.85523 -5.52063,-3.1698 -11.05836,-6.30739 -16.60668,-9.42846 -8.00222,-4.50235 -15.96443,-9.04519 -23.81128,-13.81348 -6.40476,-3.87955 -12.93586,-7.53337 -19.48853,-11.15625 -1.23359,-0.69662 -2.45565,-1.41399 -3.6665,-2.14942 -3.40202,-2.05084 -6.10648,-3.38147 -10.08765,-3.62646 -0.77215,-0.0567 -1.5443,-0.11344 -2.33984,-0.17188 -0.85272,-0.0387 -0.85272,-0.0387 -1.72266,-0.0781 -0.95497,-4.99051 -1.30194,-9.88627 -1.52734,-14.94922 -0.0413,-0.90465 -0.0827,-1.80931 -0.12523,-2.74138 -0.53688,-12.66545 -0.7011,-25.34133 -0.88006,-38.01589 -0.0303,-2.13315 -0.0616,-4.26628 -0.093,-6.39941 -0.27593,-18.83923 -0.47593,-37.67764 -0.49933,-56.5191 -0.003,-0.93655 -0.005,-1.87311 -0.008,-2.83804 -0.0307,-13.86889 0.43087,-27.68632 1.13284,-41.53696 -1.66569,-0.13558 -3.33138,-0.27116 -4.99707,-0.40674 -0.98279,-0.0803 -1.96558,-0.16053 -2.97815,-0.24322 -2.04798,-0.1661 -4.09634,-0.32748 -6.1449,-0.48627 -0.88333,-0.0762 -1.76666,-0.15243 -2.67675,-0.23096 -0.90074,-0.0733 -1.80147,-0.14663 -2.7295,-0.22217 -2.53851,-0.42145 -4.28295,-1.07771 -6.47351,-2.41066 -5.35541,-7.59134 -5.58889,-18.92439 -6.63232,-27.86035 -0.24588,-2.09962 -0.5028,-4.19798 -0.77051,-6.29492 -3.34734,-26.50208 -3.39301,-53.16827 -3.59717,-79.84473 -0.009,-1.06783 -0.0184,-2.13565 -0.0279,-3.23584 -0.0246,-3.14014 -0.041,-6.2802 -0.0541,-9.42041 -0.007,-0.94001 -0.0145,-1.88002 -0.0219,-2.84851 -0.009,-4.95464 0.32889,-9.6052 1.10393,-14.49524 -0.25146,-2.36525 -0.25146,-2.36525 -0.875,-4.5625 -2.71579,-11.8471 -2.36958,-24.44624 -2.6875,-36.5625 -0.0208,-0.77411 -0.0417,-1.54822 -0.0632,-2.34579 C 110.24612,495.68214 109.9802,483.8509 110.18795,472 c 0.011,-0.66405 0.0219,-1.3281 0.0332,-2.01227 0.0812,-4.86201 0.1774,-9.72352 0.2862,-14.58499 0.0363,-1.65036 0.0704,-3.30077 0.10193,-4.95123 0.3121,-15.80307 1.23847,-31.34919 5.51617,-46.63901 0.25201,-0.95713 0.50402,-1.91426 0.76367,-2.90039 3.52938,-13.07947 3.52938,-13.07947 7.04883,-16.72461 5.41037,-2.85547 11.22303,-3.57958 17.25,-3.9375 0.67289,-0.0554 1.34578,-0.11086 2.03906,-0.16797 4.8364,-0.30811 8.44426,0.38889 12.96094,1.91797 -0.0116,-1.05961 -0.0232,-2.11922 -0.0352,-3.21094 -0.009,-1.38802 -0.0185,-2.77604 -0.0273,-4.16406 -0.008,-0.69867 -0.0168,-1.39734 -0.0254,-2.11719 -0.0254,-5.28125 -0.0254,-5.28125 1.08789,-7.50781 -1.98,0 -3.96,0 -6,0 0.116,-1.68814 0.24331,-3.37551 0.375,-5.0625 0.0696,-0.93973 0.13922,-1.87945 0.21094,-2.84766 0.48582,-3.62532 1.09607,-6.66184 2.41406,-10.08984 2.72363,-2.073 2.72363,-2.073 6.20313,-3.76172 0.93825,-0.4689 0.93825,-0.4689 1.89546,-0.94728 2.04053,-1.01457 4.09536,-1.99581 6.15141,-2.9785 1.42187,-0.70196 2.84236,-1.40674 4.26147,-2.11426 2.1406,-1.06684 4.28183,-2.132 6.4276,-3.18838 5.95994,-2.93477 11.80981,-6.04466 17.62343,-9.25986 0.87543,-0.4813 1.75087,-0.96261 2.65283,-1.4585 1.73607,-0.95508 3.47143,-1.91144 5.20606,-2.86914 4.39445,-2.42398 8.79859,-4.83016 13.20361,-7.23486 0.89276,-0.48759 1.78551,-0.97518 2.70532,-1.47754 7.53609,-4.1083 15.10061,-8.16287 22.66968,-12.20996 14.30448,-7.64992 28.5638,-15.37795 42.75391,-23.23828 2.41517,-1.33759 4.83052,-2.67485 7.24609,-4.01172 0.6065,-0.33567 1.21301,-0.67134 1.83789,-1.01718 10.74797,-5.94355 21.56681,-11.74694 32.41309,-17.5087 7.35584,-3.90842 14.69244,-7.84913 21.99902,-11.84912 14.57157,-7.97643 29.20377,-15.84032 43.85156,-23.67578 2.38283,-1.27471 4.76565,-2.54944 7.14844,-3.82422 0.88525,-0.47356 0.88525,-0.47356 1.78839,-0.9567 7.67263,-4.10564 15.32689,-8.24269 22.96162,-12.4183 22.78986,-12.45282 45.71421,-24.52384 68.95655,-36.10864 3.69987,-1.8442 7.39603,-3.69569 11.09127,-5.54915 3.63571,-1.82251 7.27415,-3.63951 10.91312,-5.45549 0.70123,-0.35048 1.40246,-0.70095 2.12493,-1.06205 6.84451,-3.41585 13.692,-6.77501 20.70027,-9.84567 1.01583,-0.44522 2.03166,-0.89045 3.07827,-1.34916 1.82515,-0.78774 3.65745,-1.55924 5.49848,-2.30912 6.20034,-2.65424 10.57587,-6.19823 13.63711,-12.32072 z"
     fill="#3f3f3f"
     id="path332" />
  <path
     d="m 344.18795,427 c 1.14011,0.053 1.14011,0.053 2.30324,0.10716 7.41676,0.344 14.83376,0.68204 22.25104,1.01448 3.80684,0.1708 7.61357,0.34338 11.42009,0.52118 51.57957,2.40412 103.13763,2.49959 154.76107,2.46072 9.9497,-0.007 19.89939,-0.009 29.84909,-0.01 17.73232,-0.002 35.46464,-0.009 53.19696,-0.0183 17.18815,-0.009 34.3763,-0.0163 51.56446,-0.0205 1.06595,-2.7e-4 2.13191,-5.3e-4 3.23017,-8e-4 5.34953,-0.001 10.69906,-0.003 16.04859,-0.004 44.1251,-0.0103 88.2502,-0.0279 132.37529,-0.0503 -0.55049,1.03165 -1.10098,2.0633 -1.66815,3.12621 -0.72879,1.36605 -1.45757,2.7321 -2.18634,4.09815 -0.36206,0.67848 -0.72411,1.35696 -1.09714,2.056 -2.12372,3.9811 -4.2384,7.96672 -6.33939,11.95987 -3.19438,6.06998 -6.44167,12.10646 -9.75244,18.11377 -7.53029,13.67975 -14.65721,27.55742 -21.77885,41.45246 -3.56216,6.94881 -7.14654,13.88597 -10.74019,20.81854 -0.86528,1.66966 -0.86528,1.66966 -1.74805,3.37305 -2.63248,5.07098 -5.2749,10.13539 -7.97973,15.16821 -2.75989,5.14272 -5.46687,10.29638 -8.0691,15.52124 -0.33387,0.66952 -0.66775,1.33904 -1.01174,2.02885 -0.7694,1.54304 -1.53838,3.08628 -2.30704,4.62969 -4.13281,8.29778 -8.27188,16.59244 -12.41219,24.88648 -1.54501,3.09522 -3.08926,6.19081 -4.63182,9.28726 -6.11392,12.27151 -12.24378,24.52818 -18.67467,36.63771 -5.00779,9.44934 -9.76891,19.02244 -14.54066,28.59251 -0.72176,1.44535 -0.72176,1.44535 -1.4581,2.91989 -6.6186,13.25685 -13.17735,26.53484 -19.47501,39.94779 -1.18066,2.49046 -2.38834,4.9664 -3.60205,7.44091 -5.64807,11.57318 -10.95374,23.0248 -12.52734,35.94141 8.01517,1.298 16.32659,2.11276 24,-1 6.23232,-5.8112 9.13749,-14.38495 12.3374,-22.11377 1.67639,-4.00165 3.58372,-7.86381 5.55713,-11.72607 0.3324,-0.65081 0.66481,-1.30162 1.00728,-1.97216 0.66661,-1.30286 1.33385,-2.60541 2.00172,-3.90764 1.53488,-3.01039 3.02959,-6.03979 4.52616,-9.06942 3.39812,-6.87128 6.82443,-13.72828 10.25543,-20.58319 2.47308,-4.94238 4.94414,-9.88576 7.41555,-14.82897 1.62523,-3.25067 3.25057,-6.50128 4.87589,-9.75191 0.6683,-1.33658 1.33659,-2.67317 2.00489,-4.00976 1.3457,-2.69141 2.6914,-5.38281 4.0371,-8.07422 0.33172,-0.66342 0.66343,-1.32685 1.00519,-2.01038 0.6637,-1.32739 1.32741,-2.65478 1.99113,-3.98217 1.61028,-3.22049 3.22044,-6.44104 4.83028,-9.66175 2.55414,-5.10959 5.10852,-10.21903 7.67145,-15.32422 3.82592,-7.62359 7.57167,-15.28028 11.2334,-22.98437 4.01949,-8.41892 8.11887,-16.7915 12.3125,-25.125 4.19959,-8.35135 8.29653,-16.74287 12.30542,-25.18726 2.99304,-6.29173 6.02745,-12.56201 9.08911,-18.82055 0.59602,-1.21844 0.59602,-1.21844 1.20407,-2.46149 0.60572,-1.23819 0.60572,-1.23819 1.22367,-2.5014 9.63602,-19.6986 19.10513,-39.45487 28.06054,-59.47461 0.46398,-1.03375 0.92797,-2.0675 1.40601,-3.13257 0.8665,-1.9355 1.72706,-3.87367 2.58056,-5.81494 0.37697,-0.84361 0.75395,-1.68722 1.14234,-2.5564 0.48859,-1.10734 0.48859,-1.10734 0.98706,-2.23706 C 835.18795,449 835.18795,449 837.18795,448 c 9.35919,27.67983 9.35919,27.67983 12.83203,40.25391 0.87481,2.80581 1.81868,5.39206 2.94141,8.09375 3.13549,7.68176 5.52169,15.62726 8.03906,23.52734 3.9198,12.28484 8.01486,24.48913 12.31351,36.64673 1.41438,4.01059 2.80982,8.02773 4.20602,12.04468 13.12993,37.7281 26.32192,75.43253 40.03735,112.95239 4.08234,11.17475 8.07762,22.37635 12.00562,33.6062 3.87273,11.07141 7.935,22.04768 12.19556,32.97729 2.36338,6.07598 4.62488,12.16926 6.74194,18.33521 13.35712,39.61986 13.35712,39.61986 30.6875,77.5625 0.67026,1.33153 1.33829,2.6642 2,4 -1.6463,-0.14043 -3.29204,-0.28749 -4.9375,-0.4375 -0.91652,-0.0812 -1.83305,-0.16242 -2.77734,-0.24609 C 971.18795,847 971.18795,847 970.18795,846 c -8.71476,-0.91048 -16.73396,1.06415 -25.125,3.1875 -2.67286,0.65131 -5.34822,1.29207 -8.02344,1.93359 -0.66664,0.16099 -1.33329,0.32197 -2.02014,0.48783 -14.27109,3.43763 -28.46933,6.25737 -43.08142,7.70358 -15.59455,1.58183 -30.72784,5.13258 -45.98633,8.60693 -4.63039,1.05351 -9.26635,2.08045 -13.9043,3.1001 -19.14892,4.21481 -38.26858,8.55603 -57.37695,12.95068 -3.7619,0.8649 -7.52475,1.72555 -11.28784,2.58527 -9.81327,2.24275 -19.62021,4.51204 -29.42334,6.79871 -2.89799,0.67535 -5.79653,1.3483 -8.69507,2.0213 -36.37765,8.46211 -72.42403,17.77137 -107.84253,29.67969 -1.16765,0.38913 -2.3353,0.77827 -3.53833,1.17919 -1.01046,0.34257 -2.02093,0.68514 -3.06201,1.03809 C 608.18795,928 608.18795,928 604.18795,928 c 2.28545,-7.43987 5.3047,-14.48023 8.46591,-21.58121 1.57802,-3.54766 3.14023,-7.10226 4.70206,-10.65707 0.32046,-0.72912 0.64091,-1.45824 0.97108,-2.20946 5.18793,-11.82996 10.14884,-23.7565 15.0902,-35.69111 0.76834,-1.85532 1.53805,-3.71006 2.30786,-5.56476 10.9512,-26.08902 10.9512,-26.08902 18.46289,-53.29639 -5.84806,-0.19404 -11.67053,-0.19862 -17.51172,0.17578 -0.95608,0.0584 -1.91216,0.11682 -2.89722,0.177 -3.34696,0.83603 -4.47498,1.95837 -6.52856,4.70972 -0.74475,1.95834 -1.42662,3.94115 -2.0625,5.9375 -1.15783,2.42233 -2.3397,4.81274 -3.56641,7.19922 -4.61921,9.11712 -9.04696,18.31985 -13.43359,27.55078 -0.40542,0.85241 -0.81084,1.70483 -1.22855,2.58307 -6.06749,12.77482 -11.97307,25.61485 -17.70895,38.54193 -0.33266,0.74891 -0.66532,1.49781 -1.00806,2.26941 -3.24458,7.31711 -6.46166,14.62355 -9.23242,22.13733 C 578.18795,912 578.18795,912 576.18795,913 c -0.47566,-1.14469 -0.95133,-2.28938 -1.44141,-3.46875 -6.17456,-14.7017 -12.92201,-29.10909 -19.72966,-43.52408 -3.061,-6.4864 -6.07116,-12.99594 -9.07893,-19.50717 -5.74305,-12.4111 -11.61204,-24.76101 -17.49188,-37.10776 -5.09963,-10.71002 -10.16061,-21.43506 -15.13312,-32.20474 -4.12626,-8.93677 -8.3363,-17.82755 -12.625,-26.6875 -7.77408,-16.06464 -15.26287,-32.25897 -22.70313,-48.48047 -6.6743,-14.5499 -6.6743,-14.5499 -13.72875,-28.91724 -4.66554,-9.20394 -9.06129,-18.54099 -13.51246,-27.84985 -2.47262,-5.16953 -4.95141,-10.33609 -7.43066,-15.50244 -0.48952,-1.02094 -0.97904,-2.04188 -1.48339,-3.09375 -2.68365,-5.59309 -5.37811,-11.18077 -8.08692,-16.76172 -6.19647,-12.77342 -12.29697,-25.5811 -18.21777,-38.48559 -6.50824,-14.17057 -13.1988,-28.25395 -20.22876,-42.17359 -2.93325,-5.83007 -5.73764,-11.71916 -8.54566,-17.61035 -10.71862,-22.43651 -21.82563,-44.70304 -33.5625,-66.625 -1.2967,-2.42996 -2.59189,-4.86072 -3.88476,-7.29273 -0.80634,-1.51633 -1.61482,-3.03153 -2.42578,-4.5454 -2.68946,-5.05008 -2.68946,-5.05008 -2.68946,-6.16187 z"
     fill="#e9deeb"
     id="path334" />
  <path
     d="m 554.18795,0 c 2.46536,0.03023205 4.8958,0.12630324 7.35547,0.26953125 1.1409,0.0605079 1.1409,0.0605079 2.30484,0.12223816 2.5094,0.13477785 5.01827,0.27748353 7.52719,0.42073059 1.73852,0.095918 3.47704,0.1916194 5.21558,0.2871094 14.07961,0.7817521 28.15196,1.6563184 42.21704,2.6679687 3.23246,0.2222838 6.46519,0.4111154 9.7002,0.5917969 36.81433,2.2321469 72.53833,12.798568 107.55953,23.75885 4.4128,1.374195 8.84247,2.659482 13.29593,3.8974 7.16838,2.028005 14.14894,4.470309 21.13672,7.046875 0.64302,0.236049 1.28604,0.472099 1.94855,0.715302 11.10824,4.089645 21.94293,8.671615 32.73114,13.546417 4.96022,2.235559 9.97067,4.308811 15.0166,6.342041 17.62843,7.123601 34.47543,15.866793 50.83105,25.55249 2.59411,1.462189 5.18702,2.779297 7.86328,4.078125 5.61631,2.783191 10.84798,6.055592 16.10938,9.453125 1.43968,0.922083 1.43968,0.922083 2.90845,1.86279 6.27455,4.03776 12.45544,8.1809 18.52514,12.52002 2.79554,1.95411 2.79554,1.95411 6.08594,3.72266 4.26675,2.39594 8.06098,5.33346 11.91797,8.33203 0.74653,0.57516 1.49306,1.15033 2.26221,1.74292 5.0711,3.92296 10.03997,7.9493 14.96826,12.05005 2.49991,2.0038 5.0729,3.8221 7.70703,5.64453 7.13929,5.12409 13.3294,11.24813 19.6582,17.31787 2.92353,2.79167 5.87736,5.55032 8.83008,8.31104 17.96597,16.81712 17.96597,16.81712 25.50387,25.65234 2.0888,2.40254 4.2689,4.70786 6.4454,7.03125 6.6421,7.28721 12.4821,15.16699 18.375,23.0625 0.9973,1.32296 1.9947,2.64588 2.9921,3.96875 11.3865,15.20073 20.6052,31.67072 29.5235,48.40625 1.235,2.18402 2.541,4.25726 3.9062,6.35937 2.7158,4.31531 4.6722,8.79734 6.5782,13.51563 0.4756,1.15436 0.4756,1.15436 0.9609,2.33203 0.6612,1.60547 1.3186,3.21254 1.9724,4.82105 0.751,1.8284 1.5162,3.65102 2.2915,5.46923 2.9123,6.84565 5.4593,13.72597 7.7127,20.81519 0.5087,1.59654 0.5087,1.59654 1.0278,3.22534 11.7771,37.75371 11.7771,37.75371 11.0347,54.08716 1.1601,0.13922 2.3203,0.27844 3.5156,0.42187 12.4044,1.5601 24.9575,3.29334 35.4219,10.64063 20.2626,28.85889 19.2928,75.84986 19.25,109.625 -6e-4,0.8909 -0,1.78181 -0,2.69971 -0.095,52.0859 -6.9018,105.01688 -23.1855,154.61279 -0.2316,0.73025 -0.4631,1.46051 -0.7017,2.21289 -2.5019,7.75086 -4.6884,13.72458 -12.2046,17.7207 -1.0364,0.52787 -1.0364,0.52787 -2.0937,1.06641 -0.8457,0.7425 -1.6913,1.485 -2.5625,2.25 -8.1944,5.88309 -21.3768,4.93121 -31,4.9375 -0.9894,0.0122 -1.9788,0.0245 -2.9981,0.0371 -5.841,0.0116 -10.8416,-0.54058 -16.4394,-2.2246 -2.2335,-9.46167 -2.8285,-18.93676 -3.5079,-28.60547 -0.1312,-1.81068 -0.2629,-3.62133 -0.3949,-5.43196 -0.2746,-3.78453 -0.5448,-7.56934 -0.8116,-11.35442 -0.3394,-4.81018 -0.6892,-9.61954 -1.0424,-14.42873 -0.2734,-3.73789 -0.5415,-7.47615 -0.808,-11.21454 -0.1269,-1.77122 -0.2552,-3.54233 -0.3852,-5.31332 -1.0573,-14.47456 -1.6338,-28.48408 0.3757,-42.92109 0.9346,-7.16711 1.363,-14.38808 1.8765,-21.59497 0.077,-1.06565 0.1537,-2.13131 0.2329,-3.22925 0.066,-0.94553 0.1317,-1.89105 0.1995,-2.86523 0.2011,-2.30472 0.4764,-4.60311 0.7861,-6.89576 0.5279,-4.12549 0.6235,-8.22044 0.6121,-12.37573 10e-4,-0.77617 0,-1.55234 0,-2.35203 0,-2.53505 -0,-5.06997 -0.012,-7.605 -0,-0.87477 -0,-1.74954 -0,-2.65082 -0.038,-18.73029 -0.3447,-37.44688 -1.1197,-56.16168 -0.065,-1.64186 -0.065,-1.64186 -0.1309,-3.31689 -0.8112,-17.86746 -4.1251,-36.92494 -13.0027,-52.63331 C 1055.188,400 1055.188,400 1056.188,397 c -0.5209,-2.36648 -0.5209,-2.36648 -1.4766,-4.9375 -0.3416,-0.9784 -0.6832,-1.9568 -1.0352,-2.96484 -0.551,-1.53334 -0.551,-1.53334 -1.1132,-3.09766 -0.3442,-0.99129 -0.6884,-1.98258 -1.043,-3.00391 -2.0862,-5.90452 -4.4288,-11.61339 -7.0728,-17.28906 -1.2462,-2.67891 -2.4412,-5.37568 -3.6264,-8.08203 -4.9975,-11.27137 -10.4009,-22.22526 -16.3828,-33 -0.9202,-1.66482 -0.9202,-1.66482 -1.8589,-3.36328 -3.2875,-5.84354 -6.7702,-11.41253 -10.6807,-16.85791 -1.7159,-2.41146 -3.3488,-4.86168 -4.9644,-7.34131 -7.25114,-11.10826 -14.89363,-21.71797 -23.18355,-32.07275 -1.59636,-2.03287 -3.12794,-4.1046 -4.65625,-6.18897 -2.40026,-3.22565 -5.02118,-5.9927 -7.90625,-8.80078 -1.98014,-2.21396 -3.89497,-4.48178 -5.8125,-6.75 -1.06203,-1.24519 -2.12453,-2.48999 -3.1875,-3.73438 -0.76957,-0.90202 -0.76957,-0.90202 -1.55469,-1.82226 -4.66051,-5.46036 -9.19161,-10.61867 -14.74219,-15.18164 -1.84689,-1.63933 -3.4119,-3.38447 -5.01562,-5.26172 -6.12555,-7.16703 -12.66418,-13.6349 -20.21484,-19.28125 -3.09732,-2.46611 -5.96135,-5.13649 -8.84766,-7.84375 -8.04491,-7.52072 -16.45871,-14.36336 -25.42188,-20.76563 -3.283,-2.41821 -6.4805,-4.92452 -9.67895,-7.45263 -7.63478,-6.02582 -15.30331,-11.56789 -23.58081,-16.68604 -3.03902,-1.90893 -6.02892,-3.89166 -9.02686,-5.86425 -14.45491,-9.4922 -29.02659,-18.69098 -44.604,-26.23536 -4.26742,-2.07399 -8.46035,-4.28086 -12.65698,-6.49389 C 765.0912,95.080723 765.0912,95.080723 742.14498,86.292969 737.51359,84.826144 733.02173,83.021887 728.50045,81.25 703.20239,71.461949 677.00931,63.179838 650.09664,59.425781 c -3.47265,-0.508336 -6.93382,-1.075033 -10.39697,-1.644531 -2.06973,-0.336894 -4.13959,-0.672956 -6.2095,-1.008759 -1.95688,-0.319428 -3.91266,-0.645521 -5.86838,-0.971954 -20.09753,-3.215758 -40.22383,-4.237082 -60.55884,-4.238037 -1.10931,-0.0021 -2.21861,-0.0041 -3.36154,-0.0063 -16.75277,0.0056 -32.40834,1.115531 -48.77713,4.850494 -3.14587,0.682055 -6.28485,1.136155 -9.47363,1.559082 -28.30704,3.876399 -57.71802,14.700549 -83.92676,25.682617 -2.81118,1.138954 -5.62377,2.160242 -8.48438,3.164063 -6.14602,2.220237 -11.9809,4.952555 -17.85156,7.8125 -1.08579,0.52489 -2.17159,1.04978 -3.29028,1.590576 -8.26704,4.021458 -16.41897,8.233248 -24.52222,12.573488 -3.57667,1.90917 -7.21045,3.66306 -10.875,5.39844 -9.96321,4.92892 -19.23405,11.10841 -28.59424,17.07959 -2.25362,1.4367 -4.5127,2.86368 -6.77685,4.28369 -12.50477,7.90764 -24.57317,16.41822 -36.1272,25.66016 -3.17042,2.52936 -6.38208,4.9084 -9.75171,7.16406 -9.52432,6.53722 -17.9823,14.6596 -26.4375,22.5 -3.25294,3.01471 -6.49916,5.86145 -10.0625,8.5 -7.75544,5.85904 -14.78358,13.1653 -21,20.625 -2.5625,3 -2.5625,3 -5.5,5.4375 -3.8164,3.19331 -6.86519,6.76227 -10.0625,10.5625 -0.88122,1.04191 -1.76276,2.08356 -2.64453,3.125 -1.39687,1.64995 -2.79287,3.30056 -4.18433,4.95508 -2.48023,2.94508 -4.99467,5.85219 -7.55005,8.73242 -12.6917,14.4831 -23.46597,30.51752 -33.94824,46.63037 -1.36253,2.08278 -2.7442,4.14766 -4.14941,6.20166 -10.57069,15.73725 -19.79632,33.25055 -27.03125,50.76563 -1.23315,2.96666 -2.54259,5.86239 -3.89844,8.77343 -2.66277,5.82911 -4.8678,11.76537 -6.96875,17.81641 -0.36738,1.02223 -0.73477,2.04445 -1.11328,3.09766 -0.5124,1.46759 -0.5124,1.46759 -1.03516,2.96484 -0.30857,0.87785 -0.61714,1.7557 -0.93506,2.66016 -0.78679,2.41997 -0.78679,2.41997 0.4585,5.27734 -0.86646,2.0498 -0.86646,2.0498 -2.20703,4.42187 -8.493277,16.21738 -11.079587,35.4962 -11.792967,53.57813 -0.0535,1.2918 -0.10699,2.5836 -0.16211,3.91455 -0.68515,17.26004 -0.93695,34.53499 -1.01312,51.80768 -0.008,1.69659 -0.019,3.39317 -0.0333,5.08972 -0.0728,9.59032 0.37278,18.82873 1.70294,28.32794 0.82882,6.32758 1.18333,12.68017 1.56812,19.04761 0.15452,2.51451 0.31195,5.02885 0.47266,7.54297 0.0987,1.63038 0.0987,1.63038 0.19946,3.2937 0.19129,2.87651 0.19129,2.87651 0.77321,5.24881 2.142557,11.87146 0.12699,25.04725 -0.75002,36.99655 -0.13001,1.81547 -0.25974,3.63095 -0.38919,5.44646 -0.27053,3.77617 -0.54498,7.55203 -0.82223,11.32771 -0.35319,4.81498 -0.69571,9.63064 -1.03522,14.4466 -0.26485,3.7383 -0.53572,7.47615 -0.80832,11.2139 -0.12869,1.7751 -0.25547,3.55034 -0.38021,5.32572 -0.62127,8.79972 -1.29003,17.35914 -3.32264,25.97008 -6.50087,1.93872 -12.42323,2.31406 -19.1875,2.25 -1.52367,-0.009 -1.52367,-0.009 -3.07812,-0.0183 -15.81938,-0.20835 -27.18043,-2.83527 -39.24805,-13.57935 -2.81567,-3.13016 -3.83658,-7.23844 -5.23633,-11.15234 -0.34853,-0.97268 -0.69706,-1.94536 -1.05615,-2.94751 C 6.0706833,614.90765 -0.06076674,560.4087 4.5325787e-4,508 c 2.7e-4,-0.88675 5.4e-4,-1.77351 8.2000213e-4,-2.68713 0.0213,-15.17799 0.53433,-30.21227 2.18668004,-45.31287 0.10184,-0.93103 0.20367,-1.86205 0.30859,-2.82129 1.90753,-16.57308 5.35724,-32.86121 10.6914097,-48.67871 0.2247,-0.68804 0.4494,-1.37607 0.68091,-2.08496 2.307,-6.46901 6.0819,-10.16361 12.19409,-13.10254 10.13219,-4.76809 21.09436,-6.03973 32.125,-7.3125 0.0142,-0.66 0.0284,-1.32 0.043,-2 1.00873,-20.93799 7.43573,-41.23001 13.95703,-61 0.27489,-0.8424 0.54979,-1.6848 0.83301,-2.55273 3.3492,-10.18805 7.43316,-19.82933 12.16699,-29.44727 0.51691,-1.0725 1.03383,-2.145 1.56641,-3.25 2.66765,-5.46067 5.54647,-10.68063 8.73437,-15.85156 2.20023,-3.75303 4.19129,-7.60256 6.199217,-11.46094 3.18053,-6.08088 6.55171,-11.81877 10.5,-17.4375 1.31445,-1.99872 2.62681,-3.99881 3.9375,-6 2.89829,-4.3447 5.91136,-8.52119 9.16406,-12.60547 1.82926,-2.30727 3.61303,-4.6457 5.39185,-6.99194 7.11786,-9.36096 14.44511,-18.64345 22.92065,-26.82056 1.66957,-1.66545 3.185,-3.4094 4.71094,-5.20703 7.02545,-8.13556 14.7922,-15.75011 22.98438,-22.70313 2.22709,-1.96941 4.30277,-4.05561 6.39062,-6.17187 6.35903,-6.41329 12.98152,-11.89841 20.32813,-17.14453 3.73911,-2.77671 7.32695,-5.70857 10.92187,-8.66797 5.30786,-4.35228 10.66814,-8.6058 16.1875,-12.6875 0.57782,-0.43224 1.15564,-0.86448 1.75098,-1.30981 3.85007,-2.81407 7.84485,-5.12987 12.03296,-7.40406 3.71284,-2.09571 7.19849,-4.50676 10.71606,-6.91113 12.03541,-8.104193 24.16307,-15.920621 37.24048,-22.244873 5.90644,-2.867352 11.63971,-6.015792 17.38452,-9.192627 11.40876,-6.276723 22.81573,-11.839611 35.03516,-16.386719 4.10341,-1.584485 8.09369,-3.407685 12.10327,-5.213867 11.0778,-4.982187 22.24772,-9.556256 33.61157,-13.836914 1.00651,-0.382746 1.00651,-0.382746 2.03336,-0.773224 7.30249,-2.769117 14.55994,-5.206381 22.17147,-6.988495 5.6158,-1.390043 11.09807,-3.231314 16.60767,-4.988281 9.72306,-3.056732 19.46959,-5.972919 29.3125,-8.625 1.0095,-0.273604 2.019,-0.547207 3.05909,-0.829102 12.54613,-3.3310504 24.98508,-5.7289715 37.89794,-7.0849605 1.36774,-0.1495035 2.73539,-0.2997776 4.10296,-0.4507752 3.54815,-0.3902979 7.0971,-0.7728343 10.64637,-1.1528015 5.72458,-0.6133652 11.44823,-1.2351334 17.17112,-1.8640251 1.99219,-0.2171911 3.98505,-0.4284972 5.97792,-0.6397285 1.19602,-0.1303867 2.39204,-0.2607733 3.62431,-0.3951111 1.05698,-0.113085 2.11395,-0.2261701 3.20296,-0.3426819 C 553.13716,1.2479464 553.13716,1.2479464 554.18795,0 Z"
     fill="#3d3d3d"
     id="path336" />
  <path
     d="m 325.18795,448 c 0.66,0 1.32,0 2,0 0.19336,0.5427 0.38672,1.08539 0.58594,1.64453 0.26039,0.71543 0.52078,1.43086 0.78906,2.16797 0.25524,0.7077 0.51047,1.41539 0.77344,2.14453 0.87814,2.2907 0.87814,2.2907 2.85156,5.04297 0.2475,1.27875 0.495,2.5575 0.75,3.875 1.10719,5.51779 3.52726,10.28423 6.00782,15.30469 C 340.18795,481 340.18795,481 340.18795,484 c 0.66,0 1.32,0 2,0 0.19594,0.53625 0.39188,1.0725 0.59375,1.625 2.41209,6.32134 5.29824,12.31452 8.41211,18.3125 1.79714,3.50248 3.39728,7.00337 4.81836,10.67578 2.36686,6.04351 5.20939,11.84811 8.05908,17.67432 1.58363,3.23798 3.15604,6.48142 4.72998,9.72412 0.45677,0.93989 0.45677,0.93989 0.92276,1.89877 2.0289,4.1787 4.01771,8.3718 5.96396,12.58951 3.93222,8.49994 8.03364,16.9187 12.11206,25.34912 3.58713,7.41569 7.15655,14.83942 10.70044,22.27588 3.31739,6.96016 6.66834,13.90339 10.04297,20.83594 0.38199,0.78497 0.76398,1.56993 1.15755,2.37869 1.91029,3.92461 3.82274,7.84815 5.7382,11.77023 0.70798,1.45294 1.41591,2.9059 2.12378,4.35889 0.32144,0.6564 0.64287,1.31281 0.97405,1.98911 2.56446,5.2698 4.86157,10.62015 7.08845,16.04214 1.36005,3.0465 2.91396,5.83706 4.60522,8.70679 0.95728,1.79321 0.95728,1.79321 2.27369,5.42212 1.78125,4.8579 4.16584,9.32541 6.62109,13.87109 9.0625,16.92935 9.0625,16.92935 9.0625,19.5 0.66,0 1.32,0 2,0 0.098,0.59168 0.19594,1.18336 0.29688,1.79297 0.14953,0.79019 0.29906,1.58039 0.45312,2.39453 0.13922,0.7773 0.27844,1.55461 0.42188,2.35547 1.03373,3.06706 2.8053,4.94581 4.82812,7.45703 1.13281,2.66406 1.13281,2.66406 2.125,5.625 2.14051,5.84677 4.79168,11.21276 7.75,16.6875 3.15664,5.848 6.10998,11.6862 8.6875,17.8125 3.33328,7.9018 7.32589,15.38472 11.396,22.92676 3.00821,5.62719 5.94225,11.30495 8.39306,17.19824 2.27469,5.3719 5.17429,10.43685 7.97656,15.54687 2.47677,4.61037 4.37806,9.07208 5.93409,14.06446 1.18615,3.43836 2.90323,6.53518 4.67529,9.70117 0.71158,1.30303 1.42253,2.60641 2.13281,3.91016 0.33548,0.61117 0.67096,1.22235 1.0166,1.85205 2.63083,4.82694 4.94671,9.75375 7.10105,14.81067 2.15168,4.94072 4.56466,9.76685 6.90994,14.61804 0.9682,2.00404 1.93234,4.01 2.89624,6.01611 0.61759,1.28007 1.23542,2.56002 1.85352,3.83984 0.55695,1.15468 1.11391,2.30936 1.68774,3.49903 1.43646,2.97819 1.43646,2.97819 3.4646,5.8916 0,0.99 0,1.98 0,3 0.66,0 1.32,0 2,0 2.99431,5.88536 5.90757,11.72271 8,18 -8.03047,-0.51055 -15.78605,-1.79209 -23.6687,-3.38062 -3.05256,-0.61496 -6.10767,-1.21682 -9.16257,-1.82003 -1.74307,-0.34435 -3.486,-0.68937 -5.22882,-1.03498 -11.94293,-2.36624 -23.89883,-4.6659 -35.85297,-6.97473 -6.12133,-1.18245 -12.2421,-2.3678 -18.36293,-3.55287 -8.2212,-1.59169 -16.4425,-3.18287 -24.66453,-4.77031 -3.6034,-0.69594 -7.2065,-1.39337 -10.80948,-2.09146 -0.67851,-0.13134 -1.35702,-0.26269 -2.05609,-0.39801 -8.91416,-1.7276 -17.81812,-3.50215 -26.71734,-5.30512 -27.51909,-5.56943 -55.08161,-10.76675 -82.72998,-15.65332 -5.31472,-0.94024 -10.62688,-1.89414 -15.93799,-2.85449 -9.60037,-1.73547 -19.20329,-3.45612 -28.8086,-5.16406 -0.89485,-0.1592 -1.7897,-0.3184 -2.71167,-0.48242 -23.51742,-4.18015 -47.04057,-8.22319 -70.6731,-11.70337 -0.7807,-0.11631 -1.5614,-0.23262 -2.36576,-0.35245 -1.45422,-0.21631 -2.90897,-0.42913 -4.36429,-0.63788 -4.77302,-0.71172 -4.77302,-0.71172 -5.88518,-1.82388 -1.24883,-15.70224 4.1709,-27.95625 10.63574,-41.98535 1.85388,-4.09658 3.51244,-8.25178 5.11426,-12.45215 0.27062,-0.70326 0.54125,-1.40653 0.82007,-2.1311 2.39776,-6.26979 4.70546,-12.57333 7.01245,-18.87696 1.74467,-4.7604 3.5479,-9.48742 5.46045,-14.18335 1.61428,-3.99946 3.14459,-8.03117 4.6875,-12.05859 0.79095,-2.06378 1.58472,-4.12647 2.38281,-6.1875 3.67227,-9.48984 7.23345,-19.02111 10.80079,-28.55078 0.359,-0.95898 0.718,-1.91797 1.08789,-2.90601 0.60898,-1.62807 1.21724,-3.25642 1.82422,-4.88525 1.76061,-4.71751 3.58477,-9.40805 5.42382,-14.09546 2.86185,-7.31326 5.61104,-14.66253 8.26465,-22.05396 1.68484,-4.64347 3.58181,-9.1357 5.61743,-13.63574 0.98747,-2.27298 1.72856,-4.54189 2.36792,-6.9353 1.17961,-4.11608 2.63334,-8.00578 4.26563,-11.96094 1.98098,-4.97753 3.78412,-10.02126 5.59668,-15.06225 1.41974,-3.90511 2.91567,-7.72948 4.63769,-11.51197 2.13059,-4.70606 3.83448,-9.51555 5.5,-14.40234 0.61285,-1.77359 1.22613,-3.54703 1.83985,-5.32031 0.28859,-0.83693 0.57717,-1.67385 0.87451,-2.53614 2.85796,-8.25239 5.95487,-16.4187 9.02783,-24.59277 0.26096,-0.69464 0.52191,-1.38929 0.79077,-2.10498 0.75316,-2.00221 1.50828,-4.00369 2.26416,-6.00488 3.89202,-10.32148 7.65836,-20.68566 11.39038,-31.06592 0.8557,-2.3782 1.71171,-4.75628 2.56832,-7.13415 0.52595,-1.46017 1.05137,-2.92052 1.57614,-4.38111 1.2031,-3.3417 2.42323,-6.67545 3.67659,-9.99866 1.48073,-3.93397 2.88932,-7.89078 4.28052,-11.85717 0.52634,-1.49594 1.05271,-2.99187 1.5791,-4.4878 0.40297,-1.14647 0.40297,-1.14647 0.81408,-2.3161 1.3396,-3.80872 2.68437,-7.61561 4.02869,-11.42267 0.52737,-1.49413 1.05471,-2.98827 1.58203,-4.48242 2.40235,-6.80664 4.80469,-13.61328 7.20703,-20.41992 z"
     fill="#b2a9b3"
     id="path338" />
  <path
     d="m 578.18795,152 c 3.49841,1.44682 5.17669,3.18148 7.4375,6.1875 3.47438,4.47995 7.08599,8.79319 10.8125,13.0625 1.13024,1.29685 2.26045,2.59373 3.39063,3.89062 0.84208,0.96583 0.84208,0.96583 1.70117,1.95118 2.5686,2.95585 5.11364,5.93166 7.6582,8.9082 11.96326,14.0176 11.96326,14.0176 24.25,27.75 3.27935,3.57167 6.39537,7.22427 9.4375,11 2.9895,3.70676 6.07881,7.08037 9.50391,10.37891 2.24169,2.31916 4.22755,4.79317 6.24609,7.30859 3.34959,4.16281 6.84889,7.96196 10.67578,11.68359 2.4406,2.4305 4.66804,5.01181 6.91407,7.6211 2.40467,2.75228 4.87272,5.44393 7.34765,8.13281 6.91394,7.52393 13.75862,15.087 20.375,22.875 4.77275,5.61355 9.70971,11.04678 14.74731,16.4231 2.69837,2.88056 5.36671,5.77063 7.94019,8.7644 3.31768,3.84325 6.78146,7.54348 10.25,11.25 0.91229,0.97526 0.91229,0.97526 1.84302,1.97021 2.36138,2.52326 4.72338,5.04594 7.08618,7.56788 6.24838,6.6795 12.3103,13.4752 18.22436,20.45288 3.05136,3.58295 6.19391,6.98356 9.58472,10.25122 2.41984,2.41383 4.60384,5.02362 6.83203,7.61328 1.64014,1.8424 3.34327,3.55692 5.11719,5.26953 3.81152,3.7346 7.06488,7.86735 10.40234,12.02344 2.50531,3.00285 5.17193,5.73389 8.00782,8.42187 C 805.18795,404 805.18795,404 805.18795,405 c -31.77529,1.12311 -63.55343,1.19459 -95.34442,1.26532 -7.6649,0.0173 -15.32978,0.0407 -22.99466,0.0644 -13.72461,0.0424 -27.44923,0.0816 -41.17386,0.11802 -1.22248,0.003 -1.22248,0.003 -2.46967,0.007 -4.9512,0.0131 -9.9024,0.0262 -14.8536,0.0392 -7.40559,0.0195 -14.81118,0.039 -22.21677,0.0588 -0.81061,0.002 -1.62123,0.004 -2.45641,0.007 -13.67347,0.0365 -27.34693,0.0765 -41.02038,0.11876 -7.61843,0.0234 -15.23685,0.0451 -22.85529,0.0621 -28.01119,0.0631 -56.01921,0.15137 -84.02583,0.71544 -1.47243,0.0288 -1.47243,0.0288 -2.97461,0.0581 -11.23885,0.22594 -22.45268,0.62469 -33.67558,1.26874 -4.63461,0.25661 -9.26342,0.41153 -13.90376,0.49934 -1.66081,0.0377 -3.32162,0.0755 -4.98243,0.11328 -2.5095,0.0537 -5.01902,0.10606 -7.52856,0.15772 -8.73944,0.18356 -17.41777,0.42006 -26.12598,1.23828 -2.88919,0.25236 -5.74897,0.31012 -8.64819,0.27197 -0.91266,-0.009 -1.82531,-0.0181 -2.76562,-0.0273 -0.65485,-0.0116 -1.30969,-0.0232 -1.98438,-0.0352 1.66595,-3.68825 3.94553,-6.86529 6.3125,-10.125 0.43441,-0.60256 0.86883,-1.20511 1.31641,-1.82593 0.94887,-1.31553 1.89896,-2.63019 2.85009,-3.94409 1.57935,-2.18573 3.15043,-4.37722 4.72022,-6.56982 4.87743,-6.80012 9.77578,-13.56326 14.92578,-20.16016 5.61599,-7.24119 10.76425,-14.77163 15.875,-22.375 0.57363,-0.85288 1.14727,-1.70575 1.73828,-2.58447 3.60222,-5.3638 7.18355,-10.74095 10.74658,-16.13086 1.27545,-1.92324 2.56193,-3.83811 3.85498,-5.74951 3.57495,-5.38887 5.92048,-10.29277 7.66016,-16.53516 -0.95262,-0.13277 -1.90523,-0.26555 -2.88672,-0.40234 -1.88139,-0.26491 -1.88139,-0.26491 -3.80078,-0.53516 -1.24137,-0.17402 -2.48273,-0.34805 -3.76172,-0.52734 -3.55078,-0.53613 -3.55078,-0.53613 -6.125,-1.48144 -2.75683,-0.32916 -2.75683,-0.32916 -5.37109,2.41797 -1.07788,1.18044 -2.13671,2.37845 -3.17969,3.58984 -0.56695,0.6347 -1.13389,1.2694 -1.71802,1.92334 -4.74394,5.37448 -9.18658,10.97508 -13.55151,16.65869 -2.40913,3.12982 -4.92714,6.15414 -7.48047,9.16797 -4.59052,5.46352 -8.92954,11.09482 -13.24438,16.77759 -3.35653,4.42055 -6.74808,8.80807 -10.19312,13.15991 -4.70292,5.95639 -9.32996,11.96958 -13.9375,18 -0.66169,0.86335 -1.32338,1.7267 -2.00513,2.61621 -4.40199,5.77517 -8.62524,11.65409 -12.74487,17.63379 -6.34647,-0.61883 -12.00627,-2.52708 -18.01172,-4.61328 -1.06878,-0.36558 -2.13756,-0.73115 -3.23872,-1.1078 -2.29074,-0.78427 -4.58052,-1.57132 -6.86943,-2.36089 -4.81443,-1.66057 -9.63356,-3.3073 -14.45243,-4.95496 -2.41729,-0.82672 -4.83435,-1.65415 -7.25116,-2.4823 -9.71159,-3.3274 -19.43594,-6.61432 -29.17654,-9.85577 -0.69616,-0.23188 -1.39233,-0.46376 -2.10959,-0.70267 C 224.81577,372.17718 207.50314,366.5842 190.18795,361 c 2.84239,-3.08414 5.56109,-5.05388 9.26953,-6.99609 1.56343,-0.82819 1.56343,-0.82819 3.15845,-1.6731 1.11689,-0.58354 2.23378,-1.16708 3.38452,-1.76831 2.36049,-1.25056 4.72006,-2.5027 7.07813,-3.75781 0.89508,-0.47543 0.89508,-0.47543 1.80824,-0.96047 5.84756,-3.11518 11.61011,-6.37206 17.36363,-9.65672 7.20753,-4.10633 14.45267,-8.1051 21.80347,-11.94873 5.04929,-2.64541 10.03595,-5.39051 15.00903,-8.17627 6.85468,-3.83575 13.77136,-7.53274 20.7334,-11.16943 6.20957,-3.25137 12.36915,-6.5884 18.5166,-9.95557 6.43511,-3.52473 12.88142,-7.02163 19.375,-10.4375 12.51864,-6.59408 24.9201,-13.40568 37.29688,-20.26172 2.40089,-1.32969 4.80194,-2.6591 7.20312,-3.98828 0.60584,-0.33546 1.21168,-0.67092 1.83588,-1.01654 10.08992,-5.58255 20.24749,-11.02894 30.43737,-16.42645 9.408,-4.98678 18.70378,-10.14679 27.94648,-15.43445 5.23035,-2.9777 10.49264,-5.80412 15.90527,-8.43506 7.92339,-3.8544 15.51412,-8.23385 23.14062,-12.64063 7.2992,-4.21402 14.66608,-8.30668 22.03297,-12.40087 5.59453,-3.11908 11.10957,-6.31836 16.53857,-9.71875 2.07506,-1.12947 3.85455,-1.72786 6.16284,-2.17725 0,-0.66 0,-1.32 0,-2 1.65,-0.33 3.3,-0.66 5,-1 -3.54159,4.88165 -7.26694,9.54368 -11.1875,14.125 -5.27987,6.18376 -10.32874,12.52246 -15.31298,18.9458 -1.58701,2.04177 -3.18142,4.07761 -4.77686,6.11279 -3.59399,4.59028 -7.16131,9.20078 -10.72266,13.81641 -0.94528,1.21961 -0.94528,1.21961 -1.90967,2.46387 -6.84176,8.85119 -13.47091,17.75318 -19.34033,27.28613 -0.44175,0.71414 -0.88349,1.42828 -1.33862,2.16406 -2.72619,4.55349 -4.67897,9.06871 -6.41138,14.08594 5.63551,1.45484 11.67105,2.86957 16.98926,-0.11719 4.8742,-3.73911 8.92015,-8.32662 13.01074,-12.88281 1.04659,-1.10425 2.09715,-2.20476 3.15235,-3.30078 5.88412,-6.16833 11.43083,-12.63895 16.98388,-19.10425 3.61768,-4.20038 7.32709,-8.29672 11.11377,-12.34497 4.39254,-4.69988 8.50981,-9.55192 12.53907,-14.57031 2.32028,-2.81222 4.74164,-5.49766 7.21093,-8.17969 4.01483,-4.36636 7.79185,-8.86536 11.51563,-13.48047 2.95051,-3.58607 5.99247,-7.08448 9.04687,-10.58203 4.22892,-4.84729 8.33797,-9.75213 12.31641,-14.80859 4.56629,-5.65951 9.36556,-11.12835 14.12109,-16.62891 z"
     fill="#b2a9b3"
     id="path340" />
  <path
     d="m 179.18795,375 c 1.43532,0.4724 2.87011,0.94637 4.30469,1.42099 1.19859,0.39566 1.19859,0.39566 2.42139,0.79931 2.82557,0.96885 5.54372,2.10807 8.27392,3.31876 1.6693,0.7338 1.6693,0.7338 3.37232,1.48242 1.19713,0.52916 2.39427,1.05832 3.62768,1.60352 18.38998,8.05767 36.92736,15.75587 55.51032,23.35638 1.6354,0.6691 3.27046,1.33904 4.90515,2.00989 4.49865,1.84604 9.00238,3.67838 13.51553,5.48871 1.3446,0.54103 2.68765,1.08591 4.02887,1.63525 9.85903,4.03022 19.64194,6.68534 30.04013,8.88477 -0.32206,2.66853 -0.65595,5.33431 -1,8 -0.12609,1.01038 -0.25217,2.02077 -0.38208,3.06177 -0.74237,3.52997 -2.0412,6.67375 -3.50464,9.94995 -0.29334,0.67276 -0.58667,1.34553 -0.8889,2.03868 -0.63381,1.45344 -1.27032,2.9057 -1.90926,4.35689 -1.72836,3.93073 -3.43078,7.87262 -5.13153,11.81537 -0.5259,1.2188 -0.5259,1.2188 -1.06244,2.46222 -3.55034,8.25972 -6.92501,16.58601 -10.24615,24.94012 -0.28808,0.72446 -0.57615,1.44893 -0.87296,2.19534 -1.72928,4.35384 -3.45093,8.71066 -5.16927,13.06882 -0.81462,2.06484 -1.63096,4.12899 -2.448,6.19287 -3.81305,9.63223 -7.6044,19.27287 -11.38477,28.91797 -0.28965,0.73875 -0.57931,1.47751 -0.87774,2.23865 -11.55406,29.47196 -22.95844,59.00154 -34.33954,88.54065 -2.26411,5.87608 -4.53077,11.75118 -6.79816,17.626 -8.1936,21.23295 -16.36075,42.47497 -24.35956,63.7822 -0.29969,0.79713 -0.59939,1.59427 -0.90817,2.41556 -3.32295,8.84625 -6.57844,17.70993 -9.65735,26.64454 -1.50879,4.34081 -3.20631,8.54646 -5.05948,12.7524 -0.33,0 -0.66,0 -1,0 -0.001,-0.59416 -0.003,-1.18832 -0.004,-1.80048 -0.0814,-35.56886 -0.1727,-71.13768 -0.27594,-106.70648 -0.0125,-4.3136 -0.0249,-8.6272 -0.0373,-12.94079 -0.002,-0.85842 -0.005,-1.71683 -0.007,-2.60126 -0.0392,-13.72452 -0.0722,-27.44904 -0.10265,-41.17358 -0.0316,-14.18427 -0.0704,-28.36851 -0.11529,-42.55274 -0.0249,-7.9242 -0.0469,-15.84839 -0.0606,-23.77262 -0.0634,-35.72769 -0.50054,-71.40806 -1.70631,-107.11728 C 179.40385,403.21611 179.04095,389.12725 179.18795,375 Z"
     fill="#e9deeb"
     id="path342" />
  <path
     d="m 981.18795,380 c -0.002,1.11559 -0.004,2.23119 -0.007,3.38058 -0.16299,84.74805 0.23901,169.41101 2.7109,254.12641 0.92738,31.7883 1.64659,63.56768 1.98333,95.36801 0.0142,1.33858 0.0142,1.33858 0.0287,2.70419 0.10965,10.47349 0.20538,20.94704 0.28384,31.42081 -0.99,0 -1.98,0 -3,0 -6.50905,-16.4978 -6.50905,-16.4978 -7.38281,-23.59375 -0.73114,-2.85054 -2.07049,-5.2178 -3.41797,-7.81885 -1.4865,-3.20723 -2.66437,-6.49712 -3.82031,-9.83349 -0.34327,-0.98954 -0.34327,-0.98954 -0.69348,-1.99906 -0.95011,-2.75442 -1.8919,-5.51159 -2.82825,-8.27072 -2.43943,-7.16407 -4.8864,-14.00258 -8.77881,-20.53613 -1.72909,-3.12348 -2.68061,-6.39986 -3.64087,-9.823 -0.41179,-1.39781 -0.82586,-2.79494 -1.24218,-4.19141 -0.19949,-0.67176 -0.39897,-1.34352 -0.6045,-2.03564 -0.81395,-2.61473 -1.78937,-5.15751 -2.77832,-7.71045 -1.66363,-4.43415 -2.50365,-8.73614 -3.24218,-13.40234 -0.82468,-4.02736 -2.26457,-7.75193 -3.76563,-11.57032 C 940.18795,644 940.18795,644 940.18795,642 c -0.66,0 -1.32,0 -2,0 -1.47864,-3.57527 -2.92893,-7.16144 -4.375,-10.75 -0.61875,-1.49467 -0.61875,-1.49467 -1.25,-3.01953 -2.80498,-7.01247 -4.43644,-13.73869 -5.375,-21.23047 -0.66,0 -1.32,0 -2,0 -0.40218,-1.91813 -0.40218,-1.91813 -0.8125,-3.875 -0.80296,-3.56244 -1.66065,-7.1026 -2.625,-10.625 -0.22558,-0.83531 -0.45117,-1.67063 -0.68359,-2.53125 -0.29004,-0.64969 -0.58008,-1.29938 -0.87891,-1.96875 -0.99,-0.33 -1.98,-0.66 -3,-1 -1.02392,-2.01172 -1.02392,-2.01172 -1.94531,-4.6875 -0.3503,-0.99685 -0.7006,-1.9937 -1.06152,-3.02075 -0.55349,-1.62942 -0.55349,-1.62942 -1.11817,-3.29175 -0.79926,-2.28523 -1.59874,-4.57039 -2.39843,-6.85547 -0.40831,-1.17997 -0.81663,-2.35995 -1.23731,-3.57568 -1.95869,-5.6407 -3.97219,-11.26133 -5.98926,-16.88135 -0.35207,-0.99322 -0.70415,-1.98645 -1.06689,-3.00977 -2.18057,-6.09945 -4.55889,-12.07875 -7.1167,-18.03027 -2.0365,-5.05582 -3.06389,-10.30072 -4.06641,-15.64746 -0.66,0 -1.32,0 -2,0 -0.25169,-0.64437 -0.50338,-1.28874 -0.76269,-1.95264 -1.16202,-2.97428 -2.32466,-5.94832 -3.48731,-8.92236 -0.59361,-1.5198 -0.59361,-1.5198 -1.19922,-3.07031 -0.39316,-1.00547 -0.78632,-2.01094 -1.1914,-3.04688 -0.39381,-1.00901 -0.78762,-2.01802 -1.19336,-3.05761 -0.74766,-1.89169 -1.50827,-3.77834 -2.28516,-5.65821 -0.5211,-1.26215 -0.5211,-1.26215 -1.05274,-2.5498 -0.45777,-1.08886 -0.45777,-1.08886 -0.9248,-2.19971 -0.98944,-2.78489 -1.65307,-5.60682 -2.3479,-8.47659 -0.86619,-3.22181 -2.11267,-6.25465 -3.37573,-9.33933 -0.39529,-0.97472 -0.39529,-0.97472 -0.79856,-1.96914 -0.83036,-2.04623 -1.66761,-4.08953 -2.50613,-6.13242 -0.84497,-2.06458 -1.68835,-4.12976 -2.52756,-6.19669 -0.75535,-1.85967 -1.51634,-3.71705 -2.27762,-5.57431 C 862.18795,441 862.18795,441 862.18795,439 c -0.66,0 -1.32,0 -2,0 -1.0067,-2.26807 -2.00552,-4.53908 -3,-6.8125 -0.28617,-0.6426 -0.57234,-1.2852 -0.86719,-1.94727 -1.26992,-2.9178 -2.13281,-5.02289 -2.13281,-8.24023 0.8018,-0.14695 1.60359,-0.29391 2.42969,-0.44531 8.15776,-1.60936 15.85834,-3.83794 23.70263,-6.57276 C 886.01631,413 886.01631,413 888.18795,413 c 0,-0.66 0,-1.32 0,-2 0.86094,-0.21262 1.72187,-0.42523 2.60889,-0.64429 10.71898,-2.74241 21.0924,-6.22259 31.51611,-9.91821 1.75828,-0.61889 3.51658,-1.23771 5.27491,-1.85645 14.05166,-4.96171 28.00314,-10.1652 41.8916,-15.5664 C 977.52674,380 977.52674,380 981.18795,380 Z"
     fill="#716c72"
     id="path344" />
  <path
     d="m 632.18795,171 c 4.27416,1.60179 8.2858,3.61573 12.3125,5.75 0.72639,0.38414 1.45278,0.76828 2.20118,1.16406 7.65902,4.1001 15.12689,8.51904 22.61181,12.92627 6.4503,3.78474 12.95552,7.39219 19.59131,10.83862 6.40836,3.3442 12.66823,6.92915 18.93335,10.53296 6.84145,3.93336 13.71166,7.8122 20.59985,11.66309 1.04318,0.58338 2.08635,1.16676 3.16114,1.76782 3.19587,1.78647 6.39227,3.57199 9.58886,5.35718 4.25065,2.37384 8.50076,4.74864 12.75,7.125 1.04052,0.58177 2.08103,1.16354 3.15308,1.76294 6.57734,3.68358 13.1252,7.41515 19.65942,11.17456 8.5086,4.89375 17.1232,9.57204 25.7688,14.21851 6.57347,3.54644 13.03989,7.22985 19.45239,11.0581 6.04538,3.59665 12.19592,6.98295 18.36939,10.35376 7.30379,3.99297 14.54977,8.0829 21.78906,12.19141 6.33599,3.59066 12.69505,7.13678 19.06909,10.65942 10.68737,5.90722 21.30306,11.91393 31.83106,18.10083 5.47796,3.21689 10.97174,6.40229 16.49365,9.54297 0.62284,0.35446 1.24569,0.70891 1.8874,1.07411 3.02288,1.71937 6.04773,3.43516 9.07524,5.14635 7.03759,3.99763 13.91935,8.17436 20.70142,12.59204 -2.6877,3.30412 -6.24074,4.602 -10.07031,6.1875 -0.70399,0.29844 -1.40798,0.59688 -2.1333,0.90436 -1.51416,0.64102 -3.02969,1.27879 -4.54645,1.91363 -2.4065,1.00773 -4.80894,2.02462 -7.21039,3.04431 -3.21537,1.36519 -6.43169,2.72809 -9.64893,4.08887 -19.01548,8.05206 -37.75338,16.68106 -56.46923,25.40137 -0.86678,0.40358 -1.73355,0.80715 -2.62659,1.22296 -1.63012,0.75934 -3.25979,1.51965 -4.88892,2.28113 -14.47506,6.74466 -14.47506,6.74466 -18.40588,5.95587 -2.21094,-1.90625 -2.21094,-1.90625 -4.375,-4.5 -0.78117,-0.91781 -1.56234,-1.83563 -2.36719,-2.78125 -0.74508,-0.89719 -1.49015,-1.79438 -2.25781,-2.71875 -1.16242,-1.33704 -2.32871,-2.67072 -3.5,-4 -0.56332,-0.64711 -1.12664,-1.29422 -1.70703,-1.96094 -1.97138,-2.24196 -3.9746,-4.45292 -5.98047,-6.66406 -3.61618,-4.00232 -7.13237,-8.078 -10.625,-12.1875 -5.41409,-6.35815 -11.02495,-12.50808 -16.72168,-18.61279 -2.39741,-2.57551 -4.77619,-5.16799 -7.15332,-7.76221 -0.45512,-0.49645 -0.91024,-0.9929 -1.37915,-1.50439 -3.56452,-3.89361 -7.09511,-7.81692 -10.62085,-11.74561 -2.58865,-2.86851 -5.19862,-5.71702 -7.8125,-8.5625 -1.83395,-1.99943 -3.66703,-3.99967 -5.5,-6 -0.78633,-0.85723 -1.57266,-1.71445 -2.38281,-2.59766 -3.82326,-4.20291 -7.50271,-8.46703 -11.05469,-12.90234 -3.8053,-4.70848 -7.91058,-8.94874 -12.23437,-13.17969 -2.5933,-2.58459 -4.97907,-5.28751 -7.35938,-8.0664 -2.55853,-2.92912 -5.1993,-5.77743 -7.84375,-8.62891 -6.34752,-6.85174 -12.64321,-13.74434 -18.75,-20.8125 -2.16013,-2.48713 -4.38334,-4.83433 -6.75,-7.125 -2.86887,-2.81149 -5.37139,-5.79685 -7.875,-8.9375 -4.08944,-5.08738 -8.54448,-9.64247 -13.19531,-14.20313 -2.7041,-2.69583 -5.20824,-5.49415 -7.6875,-8.39453 -2.3626,-2.72341 -4.8,-5.37557 -7.24219,-8.02734 -3.2974,-3.5814 -6.57391,-7.1776 -9.8125,-10.8125 -5.07672,-5.6718 -10.32813,-11.17976 -15.58081,-16.68823 -0.67587,-0.71261 -1.35174,-1.42522 -2.04809,-2.15943 -0.61303,-0.64332 -1.22606,-1.28664 -1.85767,-1.94946 C 632.18795,172 632.18795,172 632.18795,171 Z"
     fill="#b2a9b3"
     id="path346" />
  <path
     d="m 225.18795,873 c 8.11308,1.39542 16.15414,3.07344 24.19321,4.83972 2.97747,0.65392 5.95601,1.30287 8.93447,1.95229 2.3964,0.52261 4.79266,1.04585 7.18891,1.56913 30.43327,6.64256 60.90673,12.97662 91.46844,19.00283 7.42291,1.4679 14.82381,3.01512 22.21497,4.63603 29.56962,6.46768 59.31363,12.23292 89.0625,17.8125 0.74002,0.13881 1.48005,0.27761 2.24249,0.42062 0.73032,0.13698 1.46063,0.27395 2.21308,0.41507 22.46377,4.21427 44.8332,8.80815 67.1499,13.73853 8.76407,1.9351 17.5441,3.79001 26.33203,5.61328 -0.13277,0.97195 -0.26555,1.94391 -0.40234,2.94531 -1.23115,9.459 -1.9273,18.85531 -2.25562,28.38916 -0.0475,1.32137 -0.0475,1.32137 -0.096,2.66944 -0.0239,0.77158 -0.0478,1.54317 -0.0725,2.33813 -0.17354,2.65796 -0.17354,2.65796 -0.66915,6.03272 -0.84004,6.5064 -0.74194,13.07509 -0.8208,19.62524 -0.0206,1.4459 -0.0416,2.8918 -0.063,4.3376 -0.0548,3.7811 -0.10442,7.5621 -0.15285,11.3432 -0.0505,3.8682 -0.10603,7.7363 -0.16113,11.6044 -0.10709,7.5715 -0.20863,15.1431 -0.30661,22.7148 -4.05381,-1.2975 -7.40584,-2.7154 -11,-5 -1.5627,-0.8762 -3.13057,-1.7432 -4.70313,-2.6016 -0.89058,-0.4863 -1.78116,-0.9726 -2.69873,-1.4736 -0.93988,-0.5114 -1.87977,-1.0229 -2.84814,-1.5498 -1.45044,-0.7904 -1.45044,-0.7904 -2.93018,-1.5967 -8.57076,-4.6611 -17.18247,-9.242 -25.81982,-13.7783 0,-0.66 0,-1.32 0,-2 -0.825,-0.062 -1.65,-0.1237 -2.5,-0.1875 -3.1347,-0.7277 -4.46201,-1.2818 -7.02734,-2.9883 -5.02778,-3.2295 -10.26621,-6.0114 -15.53516,-8.8242 -8.45717,-4.5422 -16.84809,-9.1826 -25.1875,-13.9375 -6.60115,-3.76052 -13.19917,-7.3803 -20.03516,-10.69531 -3.72294,-1.87487 -7.3159,-3.95683 -10.92382,-6.04273 -5.41788,-3.12712 -10.87799,-6.17452 -16.35352,-9.19946 -0.85723,-0.47655 -1.71445,-0.9531 -2.59766,-1.44409 -4.59267,-2.54475 -4.59267,-2.54475 -9.3789,-4.68482 -3.97828,-1.61025 -7.57565,-3.89216 -11.27344,-6.05859 -9.2886,-5.37467 -18.7048,-10.47928 -28.1875,-15.5 -0.69178,-0.36647 -1.38357,-0.73293 -2.09631,-1.1105 -6.59273,-3.48995 -13.19327,-6.96434 -19.81385,-10.40122 -9.67968,-5.02511 -19.2212,-10.22571 -28.68652,-15.64477 -10.21247,-5.81129 -20.60862,-11.27246 -31.01782,-16.72095 -0.67454,-0.35477 -1.34908,-0.70954 -2.04407,-1.07506 -1.27274,-0.66933 -2.54708,-1.33564 -3.82324,-1.99844 -2.5077,-1.32089 -4.50037,-2.46874 -6.51819,-4.48656 -1.69069,-0.7449 -3.38357,-1.48562 -5.09155,-2.18997 -2.97531,-1.26285 -5.82062,-2.7575 -8.6897,-4.24362 -0.61718,-0.31921 -1.23435,-0.63842 -1.87024,-0.9673 -1.29467,-0.67029 -2.58873,-1.34177 -3.8822,-2.01439 -1.95988,-1.01888 -3.92191,-2.03353 -5.88428,-3.04761 -5.92779,-3.07208 -11.80065,-6.19722 -17.58203,-9.53711 0,-0.33 0,-0.66 0,-1 z"
     fill="#b2a9b3"
     id="path348" />
  <path
     d="m 895.18795,888 c -1,3 -1,3 -3.21484,4.16797 -0.89848,0.33644 -1.79695,0.67289 -2.72266,1.01953 -0.8959,0.34418 -1.79179,0.68836 -2.71484,1.04297 C 884.18795,895 884.18795,895 882.18795,895 c 0,0.66 0,1.32 0,2 -2.97,0.99 -5.94,1.98 -9,3 0,0.66 0,1.32 0,2 -3.36684,2.43161 -4.7335,3 -9,3 0,0.66 0,1.32 0,2 -3.79664,2.311 -7.4505,4.23418 -11.61328,5.79687 -5.47887,2.16145 -10.55876,4.84097 -15.69922,7.70313 -0.94568,0.52046 -1.89137,1.04092 -2.86572,1.57715 -6.60815,3.65109 -13.15682,7.40142 -19.69678,11.17285 -6.51838,3.75826 -13.07418,7.31465 -19.83545,10.61352 -9.1874,4.50925 -18.12221,9.50198 -27.10351,14.40455 -3.21843,1.74953 -6.44492,3.48322 -9.67432,5.2124 -1.05961,0.56888 -2.11922,1.13776 -3.21094,1.72388 -2.00485,1.07584 -4.01125,2.14883 -6.01953,3.21826 -5.75528,3.09687 -11.26274,6.4474 -16.75171,9.99292 -3.28568,2.0581 -6.6578,3.79435 -10.15454,5.45947 -1.38623,0.67804 -2.77162,1.35778 -4.15625,2.03906 -1.04801,0.51482 -1.04801,0.51482 -2.11719,1.04004 -11.22413,5.58599 -22.19406,11.70201 -33.18725,17.7244 -4.02056,2.2023 -8.0417,4.4002 -12.0979,6.5363 -1.15629,0.6098 -2.31258,1.2195 -3.50391,1.8477 -0.97324,0.5066 -1.94648,1.0132 -2.94922,1.5352 -2.18519,1.2966 -3.65447,2.5502 -5.36328,4.4023 -4.1427,2.9591 -8.09699,3.9197 -13,5 0,0.66 0,1.32 0,2 -1.0725,0.4538 -2.145,0.9075 -3.25,1.375 -5.20776,1.8373 -5.20776,1.8373 -8.75,5.625 -0.66,0 -1.32,0 -2,0 0,0.66 0,1.32 0,2 -0.63164,0.3403 -1.26328,0.6806 -1.91406,1.0313 -5.60369,3.036 -11.17297,6.1273 -16.71094,9.2812 -0.61569,0.3493 -1.23138,0.6987 -1.86572,1.0586 -2.9287,1.5737 -2.9287,1.5737 -5.50928,3.6289 -1.66617,0.041 -3.33388,0.043 -5,0 -0.0501,-1.2899 -0.10022,-2.5797 -0.15186,-3.9087 -0.19034,-4.8497 -0.39021,-9.6991 -0.59277,-14.5483 -0.0859,-2.0868 -0.16927,-4.1738 -0.25,-6.2608 -0.595,-15.3833 -0.595,-15.3833 -2.43457,-30.6572 -0.72541,-4.60686 -1.29508,-9.22656 -1.85986,-13.85547 -0.10932,-0.89231 -0.21864,-1.78462 -0.33127,-2.70398 -0.22293,-1.82458 -0.44519,-3.64925 -0.66678,-5.474 -0.34198,-2.81272 -0.68748,-5.62499 -1.0332,-8.43725 -0.21896,-1.7949 -0.43772,-3.58982 -0.65625,-5.38477 -0.1031,-0.83742 -0.20619,-1.67484 -0.31241,-2.53764 -0.37394,-3.09633 -0.71103,-6.10985 -0.71103,-9.23189 1.1434,-0.0606 2.2868,-0.12117 3.46484,-0.18359 1.4909,-0.0844 2.98179,-0.16904 4.47266,-0.25391 0.75475,-0.0393 1.50949,-0.0786 2.28711,-0.11914 3.69483,0.11626 3.69483,0.11626 6.77539,-1.44336 2.81322,-0.37549 5.6156,-0.70658 8.4375,-1 5.44619,-0.36887 5.44619,-0.36887 10.5625,-2 3.69157,-0.4415 7.38266,-0.81521 11.08398,-1.16211 3.61592,-0.36726 6.87972,-0.82739 10.38477,-1.8418 4.43893,-1.25213 8.76054,-1.6165 13.34375,-1.99609 11.3652,-0.19978 11.3652,-0.19978 21.1875,-4 1.97503,-0.28084 3.95557,-0.52297 5.9375,-0.75 5.45659,-0.74606 10.59365,-1.86474 15.875,-3.4375 8.6342,-2.5423 17.38178,-4.42035 26.1875,-6.25 2.89595,-0.60232 5.79184,-1.20491 8.6875,-1.80859 0.71198,-0.14842 1.42396,-0.29684 2.15752,-0.44976 7.44244,-1.55984 14.8432,-3.28805 22.24434,-5.03218 6.08278,-1.42154 12.17649,-2.76133 18.29345,-4.02588 0.72444,-0.15044 1.44887,-0.30089 2.19525,-0.4559 3.53316,-0.7329 7.06765,-1.45741 10.60554,-2.16714 8.24687,-1.68451 16.19408,-3.84438 24.19092,-6.45484 10.32977,-3.32848 10.32977,-3.32848 15.30517,-3.69555 0.83854,-0.0683 1.67707,-0.13664 2.54102,-0.20704 1.31387,-0.10054 1.31387,-0.10054 2.65429,-0.20312 6.92879,-0.59571 13.77464,-1.35446 20.625,-2.5625 0.68691,-0.11851 1.37382,-0.23703 2.08155,-0.35913 3.69158,-0.68091 6.95716,-1.71842 10.41845,-3.14087 2.0625,-0.34375 2.0625,-0.34375 4,-0.5 3.31196,-0.34797 5.92969,-1.1723 9,-2.5 3.19456,-0.77916 5.66419,-1 9,-1 z"
     fill="#716c72"
     id="path350" />
  <path
     d="m 511.18795,496 c 0,0.66 0,1.32 0,2 0.72188,0.10312 1.44375,0.20625 2.1875,0.3125 10.47758,2.56118 18.94189,13.24977 24.8125,21.6875 6.94258,11.59199 11.32145,23.42886 12,37 0.0644,1.02094 0.12891,2.04187 0.19532,3.09375 0.28962,8.10943 -1.23001,14.40516 -4.19532,21.90625 -0.41572,1.28004 -0.41572,1.28004 -0.83984,2.58594 -2.52574,7.37935 -7.0859,12.59832 -12.16016,18.41406 -0.66257,0.8727 -1.32515,1.74539 -2.00781,2.64453 -3.30803,3.91126 -7.5366,5.93153 -11.99219,8.35547 -1.11504,0.61617 -2.23007,1.23234 -3.3789,1.86719 -1.18484,0.63016 -2.37103,1.25779 -3.5586,1.88281 -1.62228,0.85852 -1.62228,0.85852 -3.27734,1.73438 -10.16222,4.46005 -21.55542,3.88819 -32.43018,3.88623 -2.74524,0.004 -5.48892,0.041 -8.23388,0.0786 -1.75651,0.006 -3.51302,0.01 -5.26953,0.0117 -0.81464,0.0144 -1.62928,0.0287 -2.4686,0.0436 -3.84517,-0.0309 -5.92969,-0.23882 -9.31119,-2.2208 -3.61523,-3.98501 -4.32236,-7.69863 -4.3147,-12.98169 -0.003,-1.12275 -0.006,-2.24549 -0.009,-3.40227 0.007,-1.20828 0.0144,-2.41655 0.0218,-3.66145 4.6e-4,-1.2598 9.2e-4,-2.5196 0.001,-3.81758 0.003,-2.67235 0.01,-5.34436 0.0233,-8.01665 0.0201,-4.03121 0.0205,-8.06224 0.0203,-12.0935 0.0234,-17.54453 0.23046,-34.95934 2.56055,-52.37305 0.11344,-0.94037 0.22688,-1.88074 0.34375,-2.84961 1.92455,-14.73124 1.92455,-14.73124 6.28122,-19.08791 1.03125,-0.26813 2.0625,-0.53625 3.125,-0.8125 2.8921,-0.75549 4.92987,-1.79161 7.375,-3.5 14.50414,-9.44455 29.01416,-9.68111 44.5,-2.6875 z"
     fill="#444344"
     id="path352" />
  <path
     d="m 698.49655,498.76562 c 2.00654,0.95586 3.82869,2.02509 5.69141,3.23438 1.39219,0.77343 1.39219,0.77343 2.8125,1.5625 3.46162,3.85723 4.06666,8.477 5.1875,13.4375 0.33,0.99 0.66,1.98 1,3 0.0925,1.47432 0.13068,2.95246 0.13281,4.42968 0.001,0.87914 0.003,1.75828 0.004,2.66407 -0.004,0.91781 -0.008,1.83562 -0.0117,2.78125 0.004,0.87914 0.008,1.75828 0.0117,2.66406 -0.007,4.77526 -0.20472,9.46439 -0.65234,14.21875 -0.50177,6.03284 -0.53057,12.0071 -0.47656,18.05469 0.008,0.98243 0.0157,1.96487 0.0238,2.97708 0.0363,4.08676 0.0776,8.17327 0.13974,12.25973 0.64178,44.78812 0.64178,44.78812 -8.60889,54.51318 -4.59005,2.57491 -9.33153,3.2431 -14.5625,2.4375 -2.4312,-1.87015 -3.64069,-3.28138 -5,-6 -0.0942,-1.38777 -0.12794,-2.77993 -0.12939,-4.17089 -0.003,-0.8614 -0.006,-1.7228 -0.01,-2.61029 0.003,-1.39996 0.003,-1.39996 0.006,-2.82819 -9.6e-4,-0.95957 -0.002,-1.91913 -0.003,-2.90778 -6.9e-4,-2.03432 0.001,-4.06864 0.005,-6.10296 0.005,-3.10324 6e-5,-6.20634 -0.006,-9.30957 6.6e-4,-1.97657 0.002,-3.95313 0.004,-5.92969 -0.002,-0.9252 -0.004,-1.85041 -0.006,-2.80365 0.0165,-4.58568 0.35421,-8.81139 1.13894,-13.33697 0.19377,-3.11011 0.25472,-6.22075 0.31641,-9.33594 0.0208,-0.87935 0.0416,-1.75871 0.063,-2.66471 0.0651,-2.79137 0.12417,-5.58284 0.18312,-8.37435 0.0432,-1.89975 0.0868,-3.79949 0.13086,-5.69922 0.1067,-4.64184 0.20809,-9.28377 0.30664,-13.92578 -2.52395,1.87083 -5.04355,3.74743 -7.5625,5.625 -0.70447,0.52206 -1.40895,1.04414 -2.13477,1.58203 -10.56457,7.72359 -10.56457,7.72359 -19.11523,17.48047 -2.9884,3.15916 -4.8906,3.16926 -9.1875,3.3125 -1.97199,-0.19084 -3.946,-0.38636 -5.90235,-0.69922 -2.1065,-0.33945 -2.1065,-0.33945 -4.28906,-0.38282 C 631.44653,567.6104 626.9002,565.59469 622.1879,561 c -4.13093,-5.2543 -8.01041,-11.02081 -11,-17 -0.0146,1.25844 -0.0292,2.51689 -0.0442,3.81347 -0.059,4.77158 -0.13618,9.54273 -0.21826,14.31397 -0.0328,2.04582 -0.061,4.09173 -0.084,6.13769 -0.1868,16.17584 -0.99092,32.15392 -5.65357,47.73487 -0.28939,1.68441 -0.56233,3.37181 -0.8125,5.0625 -0.95488,4.97899 -2.57453,7.41265 -6.1875,10.93749 -4.25102,2.83402 -8.00994,2.63873 -13,2 -4.42758,-2.44929 -6.04994,-5.41983 -8,-9.99999 -0.38819,-3.25928 -0.38819,-3.25928 -0.39844,-6.83594 -0.004,-0.6591 -0.008,-1.31819 -0.0127,-1.99726 -0.006,-2.18107 0.0128,-4.36086 0.0361,-6.5418 0.004,-0.76021 0.009,-1.52041 0.0131,-2.30365 0.16666,-25.37796 2.12937,-50.7118 5.79941,-75.82135 0.0972,-0.68742 0.19438,-1.37483 0.29452,-2.08307 2.50048,-17.3632 2.50048,-17.3632 8.26798,-22.03803 0.66,-0.26941 1.32,-0.53883 2,-0.8164 0.99,-0.4312 0.99,-0.4312 2,-0.8711 4.44548,-1.53681 8.27001,-2.24324 13,-1.6914 2.16768,1.34839 4.06882,2.86943 6.03516,4.49609 2.07194,1.72579 2.07194,1.72579 5.40234,2.87891 7.26051,3.31181 12.51043,9.37848 17.58984,15.39453 4.09243,4.62727 8.57062,8.90007 12.97266,13.23047 2.37896,-2.91549 4.60454,-5.82677 6.625,-9 3.75385,-5.69713 7.93375,-11.05006 12.14209,-16.41309 1.15466,-1.48619 2.28272,-2.99294 3.40869,-4.50098 6.87923,-9.05642 14.34593,-14.22936 26.1329,-10.32031 z"
     fill="#434343"
     id="path354" />
  <path
     d="m 492.39889,512.17578 c 2.84105,1.74545 5.27335,3.63532 7.78907,5.82422 0.49725,0.4125 0.99451,0.825 1.50683,1.25 9.71437,8.07428 18.62991,17.4337 21.18067,30.1875 0.13027,1.51882 0.22884,3.0404 0.3125,4.5625 0.0877,1.2259 0.17531,2.4518 0.26562,3.71484 0.45817,8.98358 -0.56016,15.06832 -6.26562,22.28516 -0.55301,0.79019 -1.10602,1.58039 -1.67579,2.39453 -6.29741,8.72952 -13.79382,14.22687 -24.39062,16.22656 -6.60601,0.85324 -13.47083,1.11728 -19.93359,-0.62109 -0.008,-0.82669 -0.0162,-1.65337 -0.0245,-2.50511 -0.0786,-7.86797 -0.16607,-15.73577 -0.26303,-23.60353 -0.0495,-4.04294 -0.0958,-8.08585 -0.13434,-12.12891 -0.0374,-3.91645 -0.0839,-7.8327 -0.13619,-11.74898 -0.0182,-1.47914 -0.0335,-2.95833 -0.0453,-4.43754 -0.088,-10.64588 -0.97095,-21.02579 -2.39666,-31.57593 7.21639,-2.40546 17.03908,-2.45041 24.21094,0.17578 z"
     fill="#e9deeb"
     id="path356" />
  <path
     d="m 450.93795,784.5625 c 4.16776,0.56104 6.38432,2.53284 9.25,5.4375 1.98438,2.88281 1.98438,2.88281 3.75,6.125 0.32871,0.59474 0.65743,1.18948 0.9961,1.80225 2.39758,4.37292 4.67795,8.80731 6.97387,13.23413 5.49262,10.57142 11.41519,20.18428 18.78003,29.58862 7.2804,9.54288 14.04849,21.21418 13.90235,33.44141 -0.54877,3.83068 -1.8201,5.93427 -4.5586,8.62109 -2.69253,1.73418 -4.73783,1.99086 -7.89453,1.66016 -4.27052,-1.03554 -6.89678,-2.80262 -9.2539,-6.54297 -1.76886,-3.41686 -3.28943,-6.89595 -4.69532,-10.47657 -2.79066,-7.09976 -6.22345,-13.60614 -9.9375,-20.26562 -4.30885,-7.78537 -8.19489,-15.37554 -11.19336,-23.77002 -1.12403,-3.12644 -2.28847,-6.23735 -3.44726,-9.35107 -0.70123,-1.90465 -1.39982,-3.81023 -2.09662,-5.7165 -0.6877,-1.87811 -1.38166,-3.75393 -2.07575,-5.62969 -0.42007,-1.16709 -0.84014,-2.33418 -1.27294,-3.53663 -0.57114,-1.56923 -0.57114,-1.56923 -1.15381,-3.17016 -0.86941,-3.1843 -1.1208,-5.72942 -0.82276,-9.01343 2,-2 2,-2 4.75,-2.4375 z"
     fill="#e9deeb"
     id="path358" />
  <path
     d="m 580.18795,191 c 3.27982,2.06771 4.84746,3.77119 7,7 0.908,6.46945 -0.66221,10.15079 -4.16797,15.58594 -1.73883,2.29126 -3.52215,4.10808 -5.64453,6.03906 -4.49762,4.2058 -7.01431,9.13374 -9.88623,14.49683 -6.48775,11.97141 -6.48775,11.97141 -12.30127,14.87817 -7.05056,0.57791 -7.05056,0.57791 -10.875,-1.75 -3.51838,-3.72535 -4.82925,-7.16101 -4.68359,-12.37891 3.18801,-16.38592 17.38908,-32.73548 30.05859,-42.87109 3.56406,-1.42562 6.71928,-1.7041 10.5,-1 z"
     fill="#e9deeb"
     id="path360" />
  <path
     d="m 853.18795,911 c 0.99,0.495 0.99,0.495 2,1 -6.07049,3.88825 -12.27835,7.39711 -18.625,10.8125 -6.37614,3.45026 -12.72989,6.92281 -19,10.5625 -4.94097,2.85011 -9.95389,5.43601 -15.07422,7.94531 -4.80218,2.44372 -9.48305,5.09406 -14.18139,7.73047 -5.43006,3.03691 -10.91114,5.95603 -16.43189,8.82422 -6.8238,3.55218 -13.52546,7.27843 -20.1875,11.125 -9.70342,5.59632 -19.55199,10.85389 -29.5,16 -15.13246,7.75593 -15.13246,7.75593 -30,16 -6.3357,3.675 -12.7753,7.1387 -19.25,10.5625 -1.02609,0.5498 -2.05219,1.0996 -3.10937,1.666 -0.95907,0.5034 -1.91813,1.0068 -2.90625,1.5254 -0.864,0.4571 -1.72799,0.9141 -2.61817,1.385 -0.69835,0.2842 -1.3967,0.5683 -2.11621,0.8611 -0.66,-0.33 -1.32,-0.66 -2,-1 11.03041,-6.1698 22.11081,-12.2395 33.23438,-18.23975 5.79152,-3.12998 11.54753,-6.31081 17.26562,-9.57275 5.06644,-2.88863 10.1976,-5.56527 15.4375,-8.125 5.53141,-2.70489 10.84962,-5.63815 16.125,-8.8125 7.54038,-4.53001 15.26793,-8.61789 23.08301,-12.65185 6.60119,-3.41123 13.152,-6.90013 19.66699,-10.47315 8.04343,-4.41108 16.10655,-8.78301 24.1875,-13.125 8.36665,-4.4981 16.72346,-9.01341 25.0625,-13.5625 0.87334,-0.47631 1.74668,-0.95262 2.64649,-1.44336 0.82951,-0.4531 1.65902,-0.90621 2.51367,-1.37305 0.79165,-0.4307 1.58329,-0.86141 2.39893,-1.30517 1.6523,-0.91418 3.29327,-1.84904 4.9248,-2.79981 1.2126,-0.70213 1.2126,-0.70213 2.44971,-1.41845 0.72244,-0.4266 1.44487,-0.8532 2.18921,-1.29273 0.89827,-0.39844 0.89827,-0.39844 1.81469,-0.80493 z"
     fill="#575657"
     id="path362" />
  <path
     d="m 981.18795,575 c 0.33,0 0.66,0 1,0 0.49157,16.62465 0.96995,33.24966 1.4375,49.875 0.0348,1.2363 0.0696,2.47261 0.10538,3.74638 0.97396,34.74906 1.7768,69.49256 2.14462,104.25362 0.009,0.88638 0.0188,1.77276 0.0285,2.686 0.10969,10.47955 0.20553,20.95917 0.28404,31.439 -0.99,0 -1.98,0 -3,0 -0.69877,-1.76642 -1.38366,-3.53833 -2.0625,-5.3125 -0.38285,-0.98613 -0.7657,-1.97227 -1.16015,-2.98828 C 979.18795,756 979.18795,756 980.18795,753 c 1.485,3.465 1.485,3.465 3,7 0.26775,-33.66987 -0.12212,-67.27971 -1,-100.9375 -0.73102,-28.02724 -1.34041,-56.02303 -1,-84.0625 z"
     fill="#575657"
     id="path364" />
  <path
     d="m 850.18795,898 c 0,0.33 0,0.66 0,1 -1.00563,0.21616 -2.01126,0.43232 -3.04736,0.65503 -18.674,4.01606 -37.33968,8.05325 -55.95264,12.34497 -3.81187,0.87777 -7.62451,1.7521 -11.4375,2.625 -1.25961,0.29137 -1.25961,0.29137 -2.54467,0.58862 -4.88627,1.11848 -9.78277,2.14414 -14.70142,3.1106 -6.57532,1.30203 -13.12255,2.71177 -19.66797,4.15625 -0.99655,0.21942 -1.9931,0.43884 -3.01985,0.66492 -4.14139,0.91247 -8.28251,1.82609 -12.42205,2.74694 -3.06001,0.67993 -6.12141,1.3533 -9.1831,2.02564 -0.93333,0.20932 -1.86667,0.41865 -2.82828,0.63432 -1.30824,0.28579 -1.30824,0.28579 -2.64291,0.57735 -0.76084,0.1686 -1.52168,0.3372 -2.30558,0.51091 -2.44834,0.39172 -4.77128,0.42023 -7.24667,0.35945 3.53933,-2.03894 7.22262,-2.85674 11.17578,-3.69922 0.70877,-0.15564 1.41755,-0.31129 2.1478,-0.47165 2.32861,-0.51037 4.65874,-1.01344 6.98892,-1.51663 2.46166,-0.53765 4.92292,-1.07712 7.38417,-1.61662 1.67217,-0.36637 3.34449,-0.7321 5.01694,-1.0972 7.66843,-1.67537 15.32136,-3.41472 22.97389,-5.16118 7.99182,-1.82236 15.98863,-3.59447 24.01563,-5.25391 0.73116,-0.15189 1.46233,-0.30378 2.21565,-0.46028 3.50449,-0.72751 7.01017,-1.44728 10.51946,-2.15129 8.1611,-1.68391 16.00865,-3.8199 23.92529,-6.40161 5.75703,-1.85292 11.08725,-3.39898 17.13647,-3.79541 1.11762,-0.0735 2.23524,-0.14695 3.38672,-0.22266 3.38374,-0.16557 6.7272,-0.23109 10.11328,-0.15234 z"
     fill="#585758"
     id="path366" />
  <path
     d="m 788.18795,343 c 4.14177,3.2326 7.55453,6.64475 10.95703,10.64062 2.40997,2.78321 4.91289,5.47483 7.41797,8.17188 3.60441,3.89352 7.04603,7.86434 10.375,12 3.01369,3.74298 6.1282,7.18428 9.57813,10.52344 2.38698,2.37583 4.56306,4.91559 6.76172,7.46484 3.57753,4.11892 7.25238,8.15161 10.91015,12.19922 -0.495,0.99 -0.495,0.99 -1,2 -4.18298,-3.26477 -7.63742,-6.7277 -11.08203,-10.75781 -4.63655,-5.42033 -9.35391,-10.77913 -14.48047,-15.74219 -3.41717,-3.35448 -6.30146,-7.03839 -9.25,-10.80469 -3.16648,-3.90156 -6.57016,-7.56895 -9.98828,-11.25 -5.19922,-5.78101 -5.19922,-5.78101 -5.19922,-8.44531 -0.63937,-0.2475 -1.27875,-0.495 -1.9375,-0.75 -2.0625,-1.25 -2.0625,-1.25 -2.8125,-3.375 -0.0825,-0.61875 -0.165,-1.2375 -0.25,-1.875 z"
     fill="#646064"
     id="path368" />
  <path
     d="m 691.18795,236 c 0.6961,0.69867 1.39219,1.39734 2.10938,2.11719 1.95538,1.95675 3.92568,3.89688 5.90625,5.82812 6.02115,5.90273 11.62198,11.87714 16.86719,18.4961 2.7966,3.37965 5.87507,6.39988 9.01171,9.46093 2.49682,2.48756 4.78345,5.10862 7.07813,7.78125 2.70635,3.09223 5.48896,6.1107 8.27734,9.12891 0.5199,0.56364 1.03979,1.12729 1.57544,1.70801 2.34847,2.5381 4.69957,5.06383 7.17456,7.47949 -0.495,0.99 -0.495,0.99 -1,2 -7.09009,-6.09041 -13.45525,-12.54858 -19.66845,-19.51123 -1.2992,-1.45261 -2.61016,-2.89467 -3.92139,-4.33643 C 715.18795,265.7966 715.18795,265.7966 715.18795,263 c -0.66,0 -1.32,0 -2,0 0,-0.66 0,-1.32 0,-2 -0.63937,-0.2475 -1.27875,-0.495 -1.9375,-0.75 -2.6068,-1.57988 -2.35445,-2.4178 -3.0625,-5.25 -0.56203,-0.25781 -1.12406,-0.51563 -1.70312,-0.78125 -3.18712,-1.69112 -5.14063,-4.04515 -7.54688,-6.71875 -0.4589,-0.49887 -0.91781,-0.99773 -1.39062,-1.51172 -3.35938,-3.7293 -3.35938,-3.7293 -3.35938,-5.98828 -0.99,-0.33 -1.98,-0.66 -3,-1 0,-0.99 0,-1.98 0,-3 z"
     fill="#656165"
     id="path370" />
  <path
     d="m 563.18795,960 c 0.33,0 0.66,0 1,0 0.0294,4.10415 0.047,8.20827 0.0625,12.3125 0.008,1.14791 0.0168,2.29582 0.0254,3.47852 0.005,1.70639 0.005,1.70639 0.01,3.44726 0.008,1.54748 0.008,1.54748 0.0159,3.12622 -0.0916,2.93225 -0.30699,5.7695 -0.59985,8.68433 -0.63392,6.64087 -0.73976,13.26437 -0.83008,19.93167 -0.0208,1.294 -0.0416,2.588 -0.063,3.9212 -0.0546,3.4012 -0.10426,6.8025 -0.15285,10.2038 -0.0507,3.4863 -0.10613,6.9726 -0.16113,10.459 -0.1068,6.8117 -0.20841,13.6236 -0.30665,20.4355 -5.26565,-0.6341 -8.52703,-1.5677 -12.9375,-4.5625 -0.95777,-0.6407 -1.91554,-1.2813 -2.90234,-1.9414 -0.71285,-0.4937 -1.4257,-0.9874 -2.16016,-1.4961 0.99,-0.495 0.99,-0.495 2,-1 1.69922,0.6367 1.69922,0.6367 3.6875,1.6875 0.64325,0.3339 1.28649,0.6677 1.94922,1.0117 3.14271,1.7298 6.24986,3.5188 9.36328,5.3008 -0.002,-0.7966 -0.004,-1.5931 -0.007,-2.4138 -0.0201,-7.5322 -0.0353,-15.0644 -0.0451,-22.5965 -0.005,-3.8718 -0.0122,-7.7435 -0.0236,-11.6152 -0.0109,-3.7412 -0.0169,-7.4824 -0.0194,-11.2237 -0.002,-1.4224 -0.005,-2.8448 -0.0109,-4.2672 -0.0258,-7.0615 0.0542,-13.89846 1.10573,-20.8836 0.13065,-1.86299 0.23866,-3.72781 0.31641,-5.59375 0.0419,-0.9668 0.0838,-1.93359 0.12695,-2.92969 0.0393,-0.98226 0.0786,-1.96453 0.11914,-2.97656 0.0432,-1.0132 0.0864,-2.02641 0.13086,-3.07031 0.10514,-2.47646 0.20728,-4.953 0.30664,-7.42969 z"
     fill="#5e5d5e"
     id="path372" />
  <path
     d="m 298.18795,913 c 4.09647,1.25872 7.67035,2.7786 11.38672,4.90625 1.51763,0.86142 1.51763,0.86142 3.06592,1.74023 1.60126,0.91749 1.60126,0.91749 3.23486,1.85352 10.01694,5.67894 20.11705,11.14345 30.32959,16.45996 4.36002,2.28683 8.67422,4.65816 12.98291,7.04004 -0.99,0.495 -0.99,0.495 -2,1 -2.14795,-0.78516 -2.14795,-0.78516 -4.80468,-2.0625 -0.97035,-0.46382 -1.94069,-0.92764 -2.94043,-1.40552 -1.03287,-0.50555 -2.06573,-1.01111 -3.12989,-1.53198 -1.57249,-0.76123 -1.57249,-0.76123 -3.17675,-1.53784 -6.2936,-3.07593 -12.41614,-6.27789 -18.40137,-9.91919 -2.64169,-1.60041 -5.32721,-3.07942 -8.04688,-4.54297 -4.06767,-2.2058 -8.10849,-4.45214 -12.125,-6.75 -1.50433,-0.85852 -1.50433,-0.85852 -3.03906,-1.73438 C 299.18795,915 299.18795,915 298.18795,913 Z"
     fill="#5c5b5c"
     id="path374" />
  <path
     d="m 182.18795,661 c 0.33,0 0.66,0 1,0 0,28.71 0,57.42 0,87 1.485,-0.495 1.485,-0.495 3,-1 -0.99,2.97 -1.98,5.94 -3,9 -0.33,0 -0.66,0 -1,0 0,-31.35 0,-62.7 0,-95 z"
     fill="#b7afb8"
     id="path376" />
  <path
     d="m 582.18795,154 c 0.66,0 1.32,0 2,0 1.55078,1.79297 1.55078,1.79297 3.3125,4.1875 3.4707,4.58217 7.00253,8.49763 11.55078,12.04687 3.21082,2.66529 5.49928,5.78308 7.76172,9.26563 2.63685,3.97371 5.33751,7.81652 8.375,11.5 -0.495,0.99 -0.495,0.99 -1,2 -7.43314,-8.34057 -14.80214,-16.72196 -21.99853,-25.26782 -2.53028,-3.00377 -5.08952,-5.97528 -7.68897,-8.91968 C 582.18795,156 582.18795,156 582.18795,154 Z"
     fill="#676668"
     id="path378" />
  <path
     d="m 390.18795,587 c 0.66,0 1.32,0 2,0 1.76463,3.0881 2,4.23312 2,8 0.66,0 1.32,0 2,0 0.47627,0.99798 0.47627,0.99798 0.96216,2.01611 1.44955,3.03657 2.89994,6.07273 4.35034,9.10889 0.49952,1.04672 0.99903,2.09344 1.51368,3.17187 0.72993,1.52754 0.72993,1.52754 1.4746,3.08594 0.46874,0.98388 0.93748,1.96776 1.42041,2.98145 1.00151,2.06419 2.05778,4.10183 3.13428,6.12793 C 410.18795,624 410.18795,624 410.18795,628 c 0.66,0 1.32,0 2,0 0.33,2.31 0.66,4.62 1,7 -2.34491,-2.9349 -4.02656,-5.87157 -5.63672,-9.26172 -0.49145,-1.02923 -0.98291,-2.05847 -1.48925,-3.1189 -0.77296,-1.6369 -0.77296,-1.6369 -1.56153,-3.30688 -0.52948,-1.11383 -1.05896,-2.22766 -1.60449,-3.37524 -1.06853,-2.24964 -2.13511,-4.50021 -3.19971,-6.75171 -1.35043,-2.85213 -2.71015,-5.69953 -4.0747,-8.54493 -0.72817,-1.52589 -1.45606,-3.05192 -2.1836,-4.57812 -0.33475,-0.69634 -0.6695,-1.39267 -1.0144,-2.11011 -2.2356,-4.7232 -2.2356,-4.7232 -2.2356,-6.95239 z"
     fill="#636064"
     id="path380" />
  <path
     d="m 465.18795,743 c 2.85395,2.49681 4.28665,5.21368 5.96094,8.59375 0.5543,1.11375 1.10859,2.2275 1.67969,3.375 0.57234,1.16531 1.14469,2.33063 1.73437,3.53125 0.56461,1.13437 1.12922,2.26875 1.71094,3.4375 2.66515,5.37965 5.28601,10.7798 7.82813,16.21875 0.40428,0.86432 0.80856,1.72863 1.22509,2.61914 C 486.18795,783 486.18795,783 486.18795,786 c 0.66,0 1.32,0 2,0 2.10866,3.47308 2.10866,3.47308 1.5586,6.14062 -0.18434,0.6136 -0.36867,1.22719 -0.5586,1.85938 -0.49629,-0.99258 -0.99257,-1.98516 -1.5039,-3.00781 -0.32477,-0.64945 -0.64953,-1.29889 -0.98413,-1.96802 -0.72634,-1.45283 -1.4524,-2.9058 -2.17823,-4.35889 -1.69641,-3.39541 -3.39617,-6.7889 -5.10717,-10.177 -3.46642,-6.87587 -6.84378,-13.79076 -10.16407,-20.73828 -0.4021,-0.83507 -0.80421,-1.67014 -1.2185,-2.53052 -0.37004,-0.77883 -0.74009,-1.55767 -1.12134,-2.36011 -0.3325,-0.69641 -0.665,-1.39283 -1.00757,-2.11035 C 465.18795,745 465.18795,745 465.18795,743 Z"
     fill="#656266"
     id="path382" />
  <path
     d="m 354.18795,510 c 3.27066,3.76556 5.47135,7.66707 7.5,12.1875 0.30479,0.66491 0.60957,1.32983 0.92359,2.01489 1.99354,4.38708 3.8075,8.82343 5.53735,13.32105 1.6876,4.02231 3.73579,7.85845 5.76953,11.71484 1.20793,2.62771 1.839,4.91398 2.26953,7.76172 -2.53407,-1.26704 -2.64892,-2.12296 -3.71484,-4.70703 -2.74537,-6.42536 -5.80707,-12.69067 -8.84766,-18.98047 -0.58279,-1.20893 -1.16548,-2.41791 -1.74804,-3.62695 -3.09444,-6.45837 -3.09444,-6.45837 -6.37671,-12.82154 C 354.18795,514 354.18795,514 354.18795,510 Z"
     fill="#686468"
     id="path384" />
  <path
     d="m 509.18795,768 c 2.4573,2.4573 3.44343,4.84246 4.89844,8.00391 0.27623,0.59731 0.55246,1.19462 0.83707,1.81004 0.88397,1.9143 1.76173,3.83139 2.63949,5.74855 0.58295,1.26385 1.16628,2.52753 1.75,3.79102 1.12463,2.43679 2.2414,4.87671 3.3545,7.31884 0.94181,2.06117 1.89365,4.11784 2.86132,6.16699 0.3748,0.80454 0.74959,1.60908 1.13575,2.43799 0.32307,0.68184 0.64614,1.36367 0.979,2.06617 C 528.18795,807 528.18795,807 527.18795,809 c -5.15926,-9.51279 -10.18589,-19.06397 -14.625,-28.9375 -0.34224,-0.75007 -0.68449,-1.50015 -1.03711,-2.27295 -1.56487,-3.54698 -2.33789,-5.85372 -2.33789,-9.78955 z"
     fill="#6d6b6e"
     id="path386" />
  <path
     d="m 946.18795,661 c 2.09956,2.09955 2.52712,3.12815 3.40235,5.88672 0.25072,0.77408 0.50144,1.54816 0.75976,2.3457 0.25588,0.81018 0.51176,1.62035 0.77539,2.45508 1.77823,5.58026 3.70487,10.95067 6.0625,16.3125 1.69268,4.58613 3.21961,9.16159 4,14 -2.57674,-2.2772 -3.73927,-4.31868 -4.95703,-7.51953 -0.33854,-0.88768 -0.67708,-1.77536 -1.02588,-2.68994 -1.63035,-4.4731 -3.19708,-8.96208 -4.70459,-13.47803 -0.30744,-0.89783 -0.61488,-1.79566 -0.93164,-2.7207 -1.63437,-4.88166 -2.8551,-9.46744 -3.38086,-14.5918 z"
     fill="#585759"
     id="path388" />
  <path
     d="m 542.18795,838 c 2.47131,2.47131 3.48932,4.90208 4.96875,8.07422 0.28098,0.60206 0.56195,1.20411 0.85144,1.82442 0.59387,1.27585 1.18549,2.55275 1.77503,3.83061 0.89483,1.93671 1.79965,3.8685 2.70556,5.80005 0.57744,1.24385 1.15428,2.48798 1.73047,3.73242 0.52143,1.12366 1.04286,2.24732 1.58008,3.40503 1.42852,3.42889 2.44019,6.74773 3.38867,10.33325 -2.24221,-2.06057 -3.60951,-3.89292 -4.86718,-6.66016 -0.32606,-0.70656 -0.65211,-1.41313 -0.98804,-2.14111 -0.33653,-0.74621 -0.67305,-1.49241 -1.01978,-2.26123 -0.70581,-1.54092 -1.41283,-3.08129 -2.12109,-4.62109 -0.34144,-0.74363 -0.68288,-1.48726 -1.03467,-2.25342 -1.22397,-2.60518 -2.5587,-5.14518 -3.90674,-7.68799 -1.96571,-3.85227 -2.78151,-7.06655 -3.0625,-11.375 z"
     fill="#787679"
     id="path390" />
  <path
     d="m 661.18795,186 c 3.81954,0.59219 6.68166,1.71093 10.05469,3.58203 0.94488,0.52014 1.88977,1.04027 2.86328,1.57617 0.97582,0.54592 1.95164,1.09184 2.95703,1.6543 0.96809,0.53432 1.93618,1.06863 2.9336,1.61914 5.08811,2.81404 10.15132,5.66926 15.1914,8.56836 0,0.66 0,1.32 0,2 -5.37252,-1.5399 -9.92313,-4.0085 -14.75,-6.75 -0.79261,-0.44594 -1.58522,-0.89187 -2.40185,-1.35132 -13.53145,-7.64032 -13.53145,-7.64032 -16.84815,-9.89868 0,-0.33 0,-0.66 0,-1 z"
     fill="#646165"
     id="path392" />
  <path
     d="m 765.18795,318 c 8.81524,7.05219 16.7814,15.56487 23,25 -1.9375,-0.8125 -1.9375,-0.8125 -4,-2 -0.33,-0.99 -0.66,-1.98 -1,-3 -0.5891,-0.29391 -1.1782,-0.58781 -1.78515,-0.89063 -2.90961,-1.45737 -4.51561,-3.41527 -6.65235,-5.85937 -0.78117,-0.89203 -1.56234,-1.78406 -2.36718,-2.70313 -0.72446,-0.84046 -1.44891,-1.68093 -2.19532,-2.54687 -0.55945,-0.63422 -1.1189,-1.26844 -1.69531,-1.92188 -3.30469,-3.81455 -3.30469,-3.81455 -3.30469,-6.07812 z"
     fill="#5f5c5f"
     id="path394" />
  <path
     d="m 691.18795,236 c 0.68836,0.68965 1.37672,1.3793 2.08594,2.08984 2.04008,2.0408 4.08833,4.07305 6.14063,6.10157 1.13284,1.12366 2.26565,2.24736 3.39843,3.37109 0.57235,0.56396 1.14469,1.12793 1.73438,1.70898 6.07635,6.04103 6.07635,6.04103 7.64062,8.72852 -0.33,0.99 -0.66,1.98 -1,3 -3,-3.75 -3,-3.75 -3,-6 -0.55172,-0.21656 -1.10343,-0.43313 -1.67187,-0.65625 -3.13369,-1.80871 -5.16209,-4.15927 -7.57813,-6.84375 -0.4589,-0.49887 -0.91781,-0.99773 -1.39062,-1.51172 -3.35938,-3.7293 -3.35938,-3.7293 -3.35938,-5.98828 -0.99,-0.33 -1.98,-0.66 -3,-1 0,-0.99 0,-1.98 0,-3 z"
     fill="#5e5b5e"
     id="path396" />
  <path
     d="m 703.18795,292 c 4.25976,1.61015 6.90316,4.8261 9.875,8.125 0.53013,0.58096 1.06026,1.16193 1.60645,1.7605 3.7839,4.18915 7.2609,8.49948 10.51855,13.1145 -0.33,0.66 -0.66,1.32 -1,2 -3.0068,-3.32726 -6.00551,-6.66165 -9,-10 -0.65355,-0.72574 -1.30711,-1.45148 -1.98047,-2.19922 -3.64344,-4.09384 -6.91415,-8.28387 -10.01953,-12.80078 z"
     fill="#5d5c5e"
     id="path398" />
  <path
     d="m 779.18795,376 c 4.11933,0.50327 5.73588,2.55991 8.375,5.625 0.7786,0.90105 1.55719,1.80211 2.35938,2.73047 0.74765,0.87269 1.49531,1.74539 2.26562,2.64453 0.64453,0.69738 1.28907,1.39477 1.95313,2.11328 1.42897,1.55919 2.75078,3.21544 4.04687,4.88672 -0.33,0.99 -0.66,1.98 -1,3 -2.06347,-2.37415 -4.1256,-4.74948 -6.1875,-7.125 -0.86721,-0.99773 -0.86721,-0.99773 -1.75195,-2.01563 C 785.84978,383.94221 782.4933,379.9963 779.18795,376 Z"
     fill="#615f61"
     id="path402" />
  <path
     d="m 298.18795,913 c 5.94616,1.63964 11.03522,4.62375 16.375,7.625 0.92684,0.51562 1.85368,1.03125 2.8086,1.5625 2.2747,1.26633 4.54669,2.53726 6.8164,3.8125 0,0.33 0,0.66 0,1 -5.41993,0.81892 -9.12903,-2.04045 -13.5625,-4.75 -0.75474,-0.44344 -1.50949,-0.88688 -2.28711,-1.34375 -3.83853,-2.29974 -7.16269,-4.51438 -10.15039,-7.90625 z"
     fill="#626062"
     id="path404" />
  <path
     d="m 984.18795,744 c 0.33,0 0.66,0 1,0 0.67453,7.68484 1.15676,15.2841 1,23 -0.99,0 -1.98,0 -3,0 -0.69877,-1.76642 -1.38366,-3.53833 -2.0625,-5.3125 -0.38285,-0.98613 -0.7657,-1.97227 -1.16015,-2.98828 C 979.18795,756 979.18795,756 980.18795,753 c 0.99,2.31 1.98,4.62 3,7 0.33,-5.28 0.66,-10.56 1,-16 z"
     fill="#5d5b5d"
     id="path406" />
  <path
     d="m 953.18795,361 c 0,0.66 0,1.32 0,2 -2.8889,1.34872 -5.78712,2.67616 -8.6875,4 -0.81662,0.38156 -1.63324,0.76312 -2.47461,1.15625 -0.79599,0.36094 -1.59199,0.72187 -2.41211,1.09375 -0.72791,0.33516 -1.45583,0.67031 -2.20581,1.01562 -2.51543,0.83212 -4.58743,0.86388 -7.21997,0.73438 2.09989,-2.09989 3.57209,-2.80708 6.28125,-3.94531 0.84176,-0.35449 1.68352,-0.70899 2.55078,-1.07422 0.88043,-0.36481 1.76086,-0.72961 2.66797,-1.10547 0.88043,-0.37254 1.76086,-0.74508 2.66797,-1.12891 C 950.92442,361 950.92442,361 953.18795,361 Z"
     fill="#656166"
     id="path408" />
  <path
     d="m 407.21139,300.58203 c 2.52691,0.56113 4.67068,1.24972 6.97657,2.41797 0,0.33 0,0.66 0,1 -1.25813,-0.22688 -2.51625,-0.45375 -3.8125,-0.6875 -3.89629,-0.0682 -5.131,0.64208 -8.23438,3.13672 -2.79142,2.72687 -5.39504,5.6054 -7.95312,8.55078 -0.66,-0.33 -1.32,-0.66 -2,-1 9.91748,-12.71211 9.91748,-12.71211 15.02343,-13.41797 z"
     fill="#565657"
     id="path410" />
  <path
     d="m 629.18795,168 c 4.75416,0.49493 7.55221,1.72123 11.375,4.5625 0.87399,0.64066 1.74797,1.28133 2.64844,1.94141 0.65227,0.49371 1.30453,0.98742 1.97656,1.49609 -0.99,0.495 -0.99,0.495 -2,1 -2.27734,-0.99609 -2.27734,-0.99609 -4.9375,-2.4375 -3.80678,-2.10581 -3.80678,-2.10581 -8.0625,-2.5625 -0.33,-1.32 -0.66,-2.64 -1,-4 z"
     fill="#6f6a6f"
     id="path412" />
  <path
     d="m 633.52635,798.7729 c 0.9531,0.0105 1.9062,0.0209 2.88819,0.0317 1.54687,0.01 1.54687,0.01 3.125,0.0195 1.62035,0.0251 1.62035,0.0251 3.27343,0.0508 1.08797,0.009 2.17594,0.0181 3.29688,0.0273 2.69293,0.0236 5.38542,0.0566 8.07812,0.0977 0,1.98 0,3.96 0,6 -0.33,0 -0.66,0 -1,0 0,-1.65 0,-3.3 0,-5 -3.20988,0.023 -6.41626,0.10048 -9.625,0.1875 -0.90363,0.006 -1.80726,0.0116 -2.73828,0.0176 -6.28777,0.20653 -9.25358,1.22976 -13.63672,5.79492 2.52623,-6.8569 2.52623,-6.8569 6.33838,-7.22705 z"
     fill="#595859"
     id="path414" />
  <path
     d="m 658.18795,561 c 0.33,0.66 0.66,1.32 1,2 -2.24136,3.49653 -3.33812,4.83152 -7.4375,5.875 -3.11949,0.10946 -5.56889,-0.0586 -8.5625,-0.875 2.57064,-2.57063 4.47307,-2.24569 7.95703,-2.58203 3.04384,-0.62274 4.85358,-2.29699 7.04297,-4.41797 z"
     fill="#7d7a7d"
     id="path416" />
  <path
     d="m 815.18795,373 c 4.33334,4.33333 8.66667,8.66667 13,13 -0.99,0.33 -1.98,0.66 -3,1 -1.49131,-1.38285 -2.96765,-2.78186 -4.4375,-4.1875 -0.82371,-0.7773 -1.64742,-1.55461 -2.49609,-2.35547 -2.18935,-2.60321 -2.74034,-4.11931 -3.06641,-7.45703 z"
     fill="#6a656a"
     id="path418" />
  <path
     d="m 525.18795,867 c 3.06675,2.66099 4.7558,5.83557 6.6875,9.375 0.62262,1.12148 1.24524,2.24297 1.88672,3.39844 1.37481,3.1112 1.75694,4.88996 1.42578,8.22656 -2.9643,-3.55717 -4.77219,-7.45051 -6.6875,-11.625 -0.32033,-0.68062 -0.64066,-1.36125 -0.9707,-2.0625 -2.3418,-5.05309 -2.3418,-5.05309 -2.3418,-7.3125 z"
     fill="#635f63"
     id="path420" />
  <path
     d="m 644.18795,226 c 3.78336,1.54105 5.97945,3.8581 8.6875,6.875 0.78762,0.86367 1.57524,1.72734 2.38672,2.61719 1.78202,2.32059 2.53475,3.65792 2.92578,6.50781 -1.12109,-1.1211 -2.24149,-2.24289 -3.35937,-3.36719 -1.22956,-1.2237 -2.4712,-2.43528 -3.71875,-3.64062 -1.07508,-1.04801 -1.07508,-1.04801 -2.17188,-2.11719 -0.68578,-0.66258 -1.37156,-1.32516 -2.07812,-2.00781 C 645.18795,229 645.18795,229 644.18795,226 Z"
     fill="#5c5b5c"
     id="path422" />
  <path
     d="m 544.18795,1047 c 6.3434,1.8061 11.56939,4.2563 17,8 0.33,-0.66 0.66,-1.32 1,-2 0,0.99 0,1.98 0,3 -7.19478,-0.1599 -12.31619,-3.8065 -18,-8 0,-0.33 0,-0.66 0,-1 z"
     fill="#616061"
     id="path424" />
  <path
     d="m 249.18795,887 c 4.72184,1.3318 8.65027,3.40499 12.875,5.82422 2.30758,1.2768 4.63984,2.29395 7.125,3.17578 -2,1 -2,1 -4.35547,0.39844 -5.9347,-2.14468 -10.75789,-4.38054 -15.64453,-8.39844 0,-0.33 0,-0.66 0,-1 z"
     fill="#636163"
     id="path426" />
  <path
     d="m 582.18795,154 c 0.66,0 1.32,0 2,0 1.58594,1.82812 1.58594,1.82812 3.375,4.25 2.35457,3.17399 4.77265,6.01074 7.625,8.75 -3,0 -3,0 -5.48047,-2.33594 -0.91091,-1.00532 -1.81296,-2.01873 -2.70703,-3.03906 -0.46341,-0.50789 -0.92683,-1.01578 -1.40429,-1.53906 -3.40821,-3.81478 -3.40821,-3.81478 -3.40821,-6.08594 z"
     fill="#616061"
     id="path428" />
  <path
     d="m 604.18795,178 c 4.21815,3.97002 7.61227,8.3084 11,13 -0.33,0.66 -0.66,1.32 -1,2 -1.29398,-1.43542 -2.5851,-2.87341 -3.875,-4.3125 -0.71929,-0.80051 -1.43859,-1.60102 -2.17968,-2.42578 -3.94532,-4.58702 -3.94532,-4.58702 -3.94532,-8.26172 z"
     fill="#636163"
     id="path430" />
  <path
     d="m 666.18795,209 c 5.24973,4.10038 9.20963,8.52965 13,14 -3.83451,-1.54788 -6.02555,-3.93723 -8.75,-7 -0.79922,-0.88688 -1.59843,-1.77375 -2.42187,-2.6875 C 666.18795,211 666.18795,211 666.18795,209 Z"
     fill="#676367"
     id="path432" />
  <path
     d="m 930.18795,371 c 0,0.66 0,1.32 0,2 -1.57725,0.70134 -3.16211,1.38558 -4.75,2.0625 -0.88172,0.38285 -1.76343,0.7657 -2.67187,1.16016 -2.73069,0.82334 -3.94714,0.75474 -6.57813,-0.22266 1.9565,-0.83764 3.91526,-1.66999 5.875,-2.5 1.63582,-0.69609 1.63582,-0.69609 3.30469,-1.40625 C 928.18795,371 928.18795,371 930.18795,371 Z"
     fill="#656165"
     id="path434" />
  <path
     d="m 182.18795,741 c 0.33,0 0.66,0 1,0 0,2.31 0,4.62 0,7 0.99,-0.33 1.98,-0.66 3,-1 -0.99,2.97 -1.98,5.94 -3,9 -0.33,0 -0.66,0 -1,0 0,-4.95 0,-9.9 0,-15 z"
     fill="#c9c0ca"
     id="path436" />
  <path
     d="m 788.18795,343 c 7.13415,5.70732 7.13415,5.70732 9,9 -0.33,0.99 -0.66,1.98 -1,3 -3,-3.75 -3,-3.75 -3,-6 -0.63937,-0.2475 -1.27875,-0.495 -1.9375,-0.75 -2.0625,-1.25 -2.0625,-1.25 -2.8125,-3.375 -0.0825,-0.61875 -0.165,-1.2375 -0.25,-1.875 z"
     fill="#5e5b5f"
     id="path438" />
  <path
     d="m 695.18795,205 c 3.34374,0.55729 6.03313,1.35174 9,3 0,0.66 0,1.32 0,2 0.99,0 1.98,0 3,0 0,0.66 0,1.32 0,2 -4.30764,-1.56642 -8.06171,-3.68336 -12,-6 0,-0.33 0,-0.66 0,-1 z"
     fill="#646064"
     id="path440" />
  <path
     d="m 681.18795,225 c 4.13938,3.30016 7.58663,6.17324 10,11 -3.14897,-1.36912 -5.04785,-2.87521 -7.25,-5.5 -0.52078,-0.60844 -1.04156,-1.21688 -1.57812,-1.84375 C 681.18795,227 681.18795,227 681.18795,225 Z"
     fill="#686468"
     id="path442" />
  <path
     d="m 895.18795,888 c -0.33,0.99 -0.66,1.98 -1,3 -2.3125,0.6875 -2.3125,0.6875 -5,1 -1.8125,-1.4375 -1.8125,-1.4375 -3,-3 3.15337,-0.70075 5.72725,-1 9,-1 z"
     fill="#5e5b5e"
     id="path444" />
  <path
     d="m 765.18795,318 c 1.12895,0.93274 2.25301,1.8714 3.375,2.8125 0.62649,0.52207 1.25297,1.04414 1.89844,1.58203 C 772.18795,324 772.18795,324 774.18795,327 c -2.33528,-0.17298 -3.69177,-0.70225 -5.3789,-2.33203 -3.6211,-4.24009 -3.6211,-4.24009 -3.6211,-6.66797 z"
     fill="#6c676c"
     id="path446" />
  <path
     d="m 756.18795,308 c 2.31,1.98 4.62,3.96 7,6 -0.33,0.66 -0.66,1.32 -1,2 -4.6875,-3.61328 -4.6875,-3.61328 -6,-5 0,-0.99 0,-1.98 0,-3 z"
     fill="#636064"
     id="path448" />
  <path
     d="m 741.18795,231 c 3.73488,0.49798 5.81238,0.87492 9,3 0,0.66 0,1.32 0,2 -3.77545,-1.09069 -6.47043,-1.90831 -9,-5 z"
     fill="#656166"
     id="path450" />
  <path
     d="m 985.18795,757 c 0.33,0 0.66,0 1,0 0,3.3 0,6.6 0,10 -0.99,0 -1.98,0 -3,0 0.66,-3.3 1.32,-6.6 2,-10 z"
     fill="#565556"
     id="path452" />
  <path
     d="m 598.18795,174 c 2.475,0.495 2.475,0.495 5,1 0.33,1.65 0.66,3.3 1,5 -2.02054,-1.6417 -4.02043,-3.30912 -6,-5 0,-0.33 0,-0.66 0,-1 z"
     fill="#706d71"
     id="path454" />
  <path
     d="m 945.18795,123 c 2,1 2,1 2,1 z"
     fill="#000000"
     id="path460" />
  <path
     d="m 217.18795,120 c 2,1 2,1 2,1 z"
     fill="#000000"
     id="path462" />
  <path
     d="m 940.18795,119 c 2,1 2,1 2,1 z"
     fill="#000000"
     id="path464" />
  <path
     d="m 936.18795,116 c 2,1 2,1 2,1 z"
     fill="#000000"
     id="path466" />
  <path
     d="m 222.18795,116 c 2,1 2,1 2,1 z"
     fill="#000000"
     id="path468" />
  <path
     d="m 226.18795,113 c 2,1 2,1 2,1 z"
     fill="#000000"
     id="path470" />
  <path
     d="m 929.18795,112 c 2,1 2,1 2,1 z"
     fill="#000000"
     id="path472" />
  <path
     d="m 925.18795,109 c 2,1 2,1 2,1 z"
     fill="#000000"
     id="path474" />
  <path
     d="m 233.18795,109 c 2,1 2,1 2,1 z"
     fill="#000000"
     id="path476" />
  <path
     d="m 237.18795,106 c 2,1 2,1 2,1 z"
     fill="#000000"
     id="path478" />
  <path
     d=""
     fill="#000000"
     id="path480" />
  <path
     d=""
     fill="#000000"
     id="path482" />
  <path
     d=""
     fill="#000000"
     id="path484" />
  <path
     d=""
     fill="#000000"
     id="path486" />
  <path
     d=""
     fill="#000000"
     id="path488" />
  <path
     d=""
     fill="#000000"
     id="path490" />
  <path
     d=""
     fill="#000000"
     id="path492" />
  <path
     d=""
     fill="#000000"
     id="path494" />
  <path
     d=""
     fill="#000000"
     id="path496" />
  <path
     d=""
     fill="#000000"
     id="path498" />
  <path
     d=""
     fill="#000000"
     id="path500" />
  <path
     d=""
     fill="#000000"
     id="path502" />
  <path
     d=""
     fill="#000000"
     id="path504" />
  <path
     d=""
     fill="#000000"
     id="path506" />
  <path
     d=""
     fill="#000000"
     id="path508" />
  <path
     d=""
     fill="#000000"
     id="path510" />
  <path
     d=""
     fill="#000000"
     id="path512" />
  <path
     d=""
     fill="#000000"
     id="path514" />
  <path
     d=""
     fill="#000000"
     id="path516" />
  <path
     d=""
     fill="#000000"
     id="path518" />
  <path
     d=""
     fill="#000000"
     id="path520" />
  <path
     d=""
     fill="#000000"
     id="path522" />
  <path
     d=""
     fill="#000000"
     id="path524" />
  <path
     d=""
     fill="#000000"
     id="path526" />
  <path
     d=""
     fill="#000000"
     id="path528" />
  <path
     d=""
     fill="#000000"
     id="path530" />
  <path
     d=""
     fill="#000000"
     id="path532" />
  <path
     d=""
     fill="#000000"
     id="path534" />
  <path
     d=""
     fill="#000000"
     id="path536" />
  <path
     d=""
     fill="#000000"
     id="path538" />
  <path
     d=""
     fill="#000000"
     id="path540" />
  <path
     d=""
     fill="#000000"
     id="path542" />
  <path
     d=""
     fill="#000000"
     id="path544" />
  <path
     d=""
     fill="#000000"
     id="path546" />
  <path
     d=""
     fill="#000000"
     id="path548" />
  <path
     d=""
     fill="#000000"
     id="path550" />
  <path
     d=""
     fill="#000000"
     id="path552" />
  <path
     d=""
     fill="#000000"
     id="path554" />
  <path
     d=""
     fill="#000000"
     id="path556" />
  <path
     d=""
     fill="#000000"
     id="path558" />
  <path
     d=""
     fill="#000000"
     id="path560" />
  <path
     d=""
     fill="#000000"
     id="path562" />
  <path
     d=""
     fill="#000000"
     id="path564" />
  <path
     d=""
     fill="#000000"
     id="path566" />
  <path
     d=""
     fill="#000000"
     id="path568" />
  <path
     d=""
     fill="#000000"
     id="path570" />
  <path
     d=""
     fill="#000000"
     id="path572" />
  <path
     d=""
     fill="#000000"
     id="path574" />
  <path
     d=""
     fill="#000000"
     id="path576" />
  <path
     d=""
     fill="#000000"
     id="path578" />
  <path
     d=""
     fill="#000000"
     id="path580" />
  <path
     d=""
     fill="#000000"
     id="path582" />
  <path
     d=""
     fill="#000000"
     id="path584" />
  <path
     d=""
     fill="#000000"
     id="path586" />
  <path
     d=""
     fill="#000000"
     id="path588" />
  <path
     d=""
     fill="#000000"
     id="path590" />
  <path
     d=""
     fill="#000000"
     id="path592" />
  <path
     d=""
     fill="#000000"
     id="path594" />
  <path
     d=""
     fill="#000000"
     id="path596" />
  <path
     d=""
     fill="#000000"
     id="path598" />
  <path
     d=""
     fill="#000000"
     id="path600" />
  <path
     d=""
     fill="#000000"
     id="path602" />
  <path
     d=""
     fill="#000000"
     id="path604" />
  <path
     d=""
     fill="#000000"
     id="path606" />
  <path
     d=""
     fill="#000000"
     id="path608" />
  <path
     d=""
     fill="#000000"
     id="path610" />
  <path
     d=""
     fill="#000000"
     id="path612" />
  <path
     d=""
     fill="#000000"
     id="path614" />
  <path
     d=""
     fill="#000000"
     id="path616" />
  <path
     d=""
     fill="#000000"
     id="path618" />
  <path
     d=""
     fill="#000000"
     id="path620" />
  <path
     d=""
     fill="#000000"
     id="path622" />
</svg>
